<svg width="57" height="56" viewBox="0 0 57 56" fill="none" xmlns="http://www.w3.org/2000/svg">
<path fill-rule="evenodd" clip-rule="evenodd" d="M0.5 28C0.5 22.4621 2.14217 17.0486 5.21885 12.444C8.29553 7.83947 12.6685 4.25064 17.7849 2.13139C22.9012 0.0121319 28.5311 -0.542361 33.9625 0.538025C39.394 1.61841 44.3831 4.28515 48.299 8.20102C52.2149 12.1169 54.8816 17.106 55.962 22.5375C57.0424 27.9689 56.4879 33.5988 54.3686 38.7151C52.2494 43.8315 48.6605 48.2045 44.056 51.2811C39.4514 54.3578 34.0379 56 28.5 56C21.0739 56 13.952 53.05 8.70101 47.799C3.44999 42.548 0.5 35.4261 0.5 28ZM28.5 14C32.0529 14.0175 35.4676 15.3783 38.0586 17.8092C40.6497 20.2402 42.2252 23.5613 42.4689 27.1059C42.7125 30.6504 41.6063 34.1559 39.3723 36.9186C37.1383 39.6812 33.9419 41.4965 30.4249 42V32.0249H33.7497L34.448 28H30.5983V25.3751C30.5983 24.3254 31.1231 23.2751 32.8729 23.2751H34.6226V19.7752C33.5862 19.5587 32.5315 19.4416 31.4729 19.4254C28.3231 19.4254 26.2231 21.3503 26.2231 24.8503V28H22.7249V32.0249H26.2249V41.8249C22.7553 41.2529 19.6278 39.3967 17.4637 36.6251C15.2997 33.8535 14.2573 30.3693 14.5438 26.8646C14.8303 23.3599 16.4247 20.0912 19.0102 17.7078C21.5956 15.3245 24.983 14.0009 28.4994 14H28.5Z" fill="#F58634"/>
</svg>
