<svg width="57" height="56" viewBox="0 0 57 56" fill="none" xmlns="http://www.w3.org/2000/svg">
<path fill-rule="evenodd" clip-rule="evenodd" d="M22.5496 37.9747C24.3556 39.0242 26.4107 39.5682 28.4993 39.5499C31.5358 39.5624 34.454 38.3738 36.6176 36.2433C38.7812 34.1128 40.0147 31.2133 40.0491 28.177C40.0829 26.652 39.8056 25.1362 39.2339 23.722C38.6623 22.3079 37.8083 21.0251 36.7242 19.9521C34.5106 17.8295 31.5662 16.6384 28.4993 16.625C25.4445 16.6519 22.5224 17.8773 20.3622 20.0375C18.202 22.1977 16.9765 25.1199 16.9496 28.1747C16.9311 30.3422 17.5387 32.4689 18.6993 34.2996L19.0491 34.8244L17.8242 39.0244L22.1993 37.7996L22.5496 37.9747ZM32.3496 29.7499C33.1962 30.0251 34.0161 30.3764 34.7993 30.7996C34.8562 30.8269 34.9085 30.8496 34.9625 30.8724C35.2543 30.9958 35.5266 31.1106 35.6745 31.8493C35.8496 31.8493 35.8496 32.5493 35.4993 33.4244C35.3242 34.1244 33.9242 34.9996 33.2248 34.9996C33.1059 34.9996 32.9928 35.0098 32.8711 35.0206C32.2763 35.0729 31.4955 35.1423 29.0248 34.125C25.9581 32.8984 23.8319 29.925 23.2348 29.0897C23.1507 28.972 23.0967 28.8963 23.0751 28.8747C23.0455 28.8178 22.9852 28.72 22.9045 28.5944C22.1906 27.5971 21.7649 26.4226 21.6739 25.1996C21.6558 24.6452 21.7557 24.0933 21.9668 23.5804C22.178 23.0676 22.4956 22.6054 22.8988 22.2244C23.0109 22.1066 23.1472 22.0144 23.2982 21.9541C23.4492 21.8937 23.6115 21.8667 23.7739 21.8747H24.4739C24.6349 21.86 24.7955 21.9056 24.9249 22.0025C25.0542 22.0995 25.1429 22.241 25.1739 22.3996C25.5854 23.2486 25.9362 24.1258 26.2236 25.0244C26.2272 25.0845 26.2402 25.1436 26.2623 25.1996C26.3015 25.3161 26.3402 25.4327 26.2236 25.5493C26.1505 25.626 26.0912 25.7149 26.0485 25.812C26.0058 25.9091 25.9465 25.9979 25.8733 26.0747L25.3485 26.5996C25.1733 26.7747 24.9988 26.9493 25.1733 27.2996C25.6587 28.2277 26.3112 29.0582 27.0982 29.7493C27.8649 30.4383 28.7396 30.9967 29.6872 31.4023C29.7748 31.441 29.8465 31.4723 29.901 31.4996C30.2513 31.4996 30.4259 31.4996 30.601 31.3244C30.7543 31.0756 30.93 30.8413 31.1259 30.6244C31.3218 30.4076 31.4975 30.1733 31.6508 29.9244C31.8248 29.5747 31.9993 29.5747 32.3496 29.7499Z" fill="#F58634"/>
<path fill-rule="evenodd" clip-rule="evenodd" d="M0.5 28C0.5 22.4621 2.14217 17.0486 5.21885 12.444C8.29553 7.83947 12.6685 4.25064 17.7849 2.13139C22.9012 0.0121319 28.5311 -0.542361 33.9625 0.538025C39.394 1.61841 44.3831 4.28515 48.299 8.20102C52.2149 12.1169 54.8816 17.106 55.962 22.5375C57.0424 27.9689 56.4879 33.5988 54.3686 38.7151C52.2494 43.8315 48.6605 48.2045 44.056 51.2812C39.4514 54.3578 34.0379 56 28.5 56C21.0739 56 13.952 53.05 8.70101 47.799C3.44999 42.548 0.5 35.4261 0.5 28ZM28.5 14C30.3184 13.9903 32.1207 14.3412 33.8027 15.0322C35.4847 15.7232 37.013 16.7408 38.2994 18.026C40.2856 19.9567 41.6478 22.4381 42.2102 25.1503C42.7727 27.8625 42.5096 30.681 41.455 33.2423C40.4004 35.8035 38.6025 37.9901 36.2934 39.5199C33.9843 41.0497 31.2698 41.8525 28.5 41.8249C26.1782 41.7619 23.9024 41.1631 21.8503 40.0751L14.5 42L16.4249 35C15.176 32.8788 14.5114 30.4647 14.4988 28.0032C14.4861 25.5417 15.1258 23.1208 16.3528 20.987C17.5798 18.8531 19.3503 17.0824 21.484 15.8551C23.6177 14.6278 26.0385 13.9877 28.5 14Z" fill="#F58634"/>
</svg>
