<svg width="20" height="20" viewBox="0 0 20 20" fill="none" xmlns="http://www.w3.org/2000/svg">
<path d="M16.4963 5H6.34961V16.2889H16.4963V5Z" stroke="white" stroke-width="1.5" stroke-linecap="round" stroke-linejoin="round"/>
<path d="M4.84766 5H18.0006" stroke="white" stroke-width="1.5" stroke-linecap="round" stroke-linejoin="round"/>
<path d="M6.34998 14.0342H4.84825C4.47564 14.0381 4.10594 13.9681 3.76055 13.8282C3.41516 13.6883 3.10094 13.4814 2.83606 13.2193C2.57118 12.9572 2.36091 12.6451 2.2174 12.3012C2.07389 11.9573 2 11.5884 2 11.2158C2 10.8431 2.07389 10.4742 2.2174 10.1303C2.36091 9.7864 2.57118 9.47437 2.83606 9.21227C3.10094 8.95017 3.41516 8.74319 3.76055 8.60331C4.10594 8.46343 4.47564 8.39343 4.84825 8.39736H6.34998" stroke="white" stroke-width="1.5" stroke-linecap="round" stroke-linejoin="round"/>
</svg>
