<?xml version="1.0" encoding="UTF-8"?>
<svg id="Layer_1" xmlns="http://www.w3.org/2000/svg" viewBox="0 0 102 102">
<path d="M50.85,.63C23,.63,.35,23.28,.35,51.13s22.65,50.5,50.5,50.5,50.5-22.65,50.5-50.5S78.7,.63,50.85,.63Zm0,99.5C23.83,100.13,1.85,78.15,1.85,51.13S23.83,2.13,50.85,2.13s49,21.98,49,49-21.98,49-49,49Z"/>
<polygon points="59.76 72.8 60.76 72.8 60.76 63.55 67.77 63.55 67.77 72.8 68.77 72.8 68.77 62.55 59.76 62.55 59.76 72.8"/><path d="M31.56,41.99h6.43v-8.22h-6.43v8.22Zm1-7.22h4.43v6.22h-4.43v-6.22Z"/>
<path d="M42.32,41.99h6.43v-8.22h-6.43v8.22Zm1-7.22h4.43v6.22h-4.43v-6.22Z"/>
<path d="M42.29,54.01h6.43v-8.22h-6.43v8.22Zm1-7.22h4.43v6.22h-4.43v-6.22Z"/>
<path d="M31.55,54.01h6.43v-8.22h-6.43v8.22Zm1-7.22h4.43v6.22h-4.43v-6.22Z"/>
<path d="M42.29,66.04h6.43v-8.22h-6.43v8.22Zm1-7.22h4.43v6.22h-4.43v-6.22Z"/>
<path d="M31.55,66.04h6.43v-8.22h-6.43v8.22Zm1-7.22h4.43v6.22h-4.43v-6.22Z"/>
<polygon points="74.95 45.79 54.03 45.68 54.03 28.96 26.25 28.96 26.25 72.57 27.25 72.57 27.25 29.96 53.03 29.96 53.03 72.8 54.03 72.8 54.03 46.68 74.45 46.79 74.45 72.8 75.45 72.8 75.45 46.29 74.95 46.29 74.95 45.79"/>
</svg>