<?xml version="1.0" encoding="utf-8"?>
<!-- Generator: Adobe Illustrator 26.4.1, SVG Export Plug-In . SVG Version: 6.00 Build 0)  -->
<svg version="1.1" id="Capa_1" xmlns="http://www.w3.org/2000/svg" xmlns:xlink="http://www.w3.org/1999/xlink" x="0px" y="0px"
	 viewBox="0 0 612 610" style="enable-background:new 0 0 612 610;" xml:space="preserve">
<style type="text/css">
	.st0{fill:#FFFFFF;}
</style>
<path class="st0" d="M560.78,78.97c-2.87-6.28-6.86-12.07-11.89-17.1c-6.95-6.95-15.34-11.94-24.49-14.7
	c-13.06-18.96-34.91-31.43-59.63-31.43H144.88c-24.72,0-46.57,12.46-59.63,31.43c-9.14,2.76-17.52,7.74-24.47,14.68
	c-5.04,5.04-9.04,10.83-11.91,17.13c-20.17,9.3-34.22,29.7-34.22,53.33v173.34c0,0.08,0,0.17,0,0.25s0,0.17,0,0.25v173.36
	c0,23.63,14.04,44.03,34.22,53.33c2.87,6.28,6.86,12.07,11.89,17.11c5.83,5.84,12.68,10.28,20.15,13.19l0.17,0.17l0.07-0.07
	c1.35,0.52,2.71,1,4.09,1.42c13.06,18.97,34.91,31.43,59.63,31.43h319.89c24.73,0,46.6-12.48,59.66-31.47
	c16.14-4.91,29.34-16.6,36.29-31.74c20.21-9.28,34.28-29.7,34.28-53.35V132.3C595,108.66,580.95,88.26,560.78,78.97z M45.25,435.46
	c7.79,15.55,16.93,30.32,27.28,44.12v44.13c0,0.04,0,0.08,0,0.13v12.68c-7.96-0.11-15.53-1.87-22.4-4.94
	c-3.19-7.19-4.89-15.04-4.89-23.15V435.46z M16.31,348.62h1.5c3.74,25.27,10.76,49.48,20.6,72.2h-22.1V348.62z M19.48,348.62h24.11
	v72.2h-3.38C30.31,398.11,23.25,373.89,19.48,348.62z M213.67,32.15l2.67,12.52h-26.42v-3.39C197.66,37.9,205.58,34.85,213.67,32.15
	z M189.92,39.47V17.39h20.6l2.8,13.14C205.36,33.18,197.56,36.17,189.92,39.47z M419.74,41.29v3.38h-25.86l2.63-12.34
	C404.41,34.98,412.16,37.98,419.74,41.29z M396.86,30.7l2.84-13.32h20.04v22.1C412.27,36.25,404.64,33.31,396.86,30.7z
	 M564.41,106.12l-26.76,26.81c-0.17-0.23-0.34-0.47-0.51-0.7v-24.18l23.97-23.93c2.18,6.09,3.31,12.58,3.31,19.24V106.12z
	 M593.32,305.89c0,14.23-1.05,28.21-3.05,41.9h-24.21V305.2l27.25-0.16C593.31,305.33,593.32,305.61,593.32,305.89z M534.65,534.55
	l-24.17-24.17c8.94-8.99,17.29-18.57,25-28.67v42.01C535.48,527.4,535.19,531.02,534.65,534.55z M509.3,509.21l-6.93-6.93
	c10.75-24.9,16.82-51.92,17.52-79.81h15.58V479C527.45,489.66,518.7,499.76,509.3,509.21z M477.92,536.55h-1.43l-34.48-34.44
	c3.03-5.02,5.78-10.22,8.26-15.58l39.22,39.28c-0.61,1.03-1.21,2.07-1.84,3.09C484.47,531.52,481.22,534.07,477.92,536.55z
	 M484.9,533.24c-0.72,1.11-1.45,2.22-2.19,3.31h-2.07C482.07,535.46,483.49,534.35,484.9,533.24z M74.18,308.07l42.23-0.25
	c-0.59,1.01-1.2,2-1.77,3.02c-1.93,3.33-3.66,6.67-5.09,9.51c-4.36,8.7-7.84,17.88-10.32,27.28l-0.04,0.16H74.18V308.07z
	 M129.37,190.99l46.84,46.78c-1.12,2.1-2.18,4.22-3.18,6.37c-7.94,6.01-15.51,12.55-22.54,19.57h0
	c-12.75,12.74-23.86,27.02-33.09,42.45l-43.21,0.25V190.99H129.37z M74.18,189.34v-53.47l53.53,53.47H74.18z M202.55,204.79
	l13.24,13.24c-0.7,0.32-1.41,0.62-2.11,0.95l-16.51,8.54l-0.67,0.39c-0.47,0.27-0.94,0.55-1.4,0.86l-0.6,0.42l-4.58-4.58v-5.22
	C193.77,214.29,197.98,209.41,202.55,204.79z M189.92,216.7v-24.54l11.46,11.46C197.27,207.78,193.46,212.15,189.92,216.7z
	 M407.12,204.78c4.56,4.61,8.77,9.48,12.62,14.58v4.71l-4.89,4.88l-0.3-0.2c-0.47-0.32-0.95-0.6-1.42-0.87l-17.26-8.96
	c-0.66-0.31-1.33-0.6-2-0.9L407.12,204.78z M408.29,203.61l11.45-11.45v24.51C416.2,212.13,412.4,207.76,408.29,203.61z
	 M535.48,190.99v112.74l-43.7,0.25c-9.03-14.64-19.76-28.17-32.01-40.27c-7.26-7.22-15.1-13.92-23.33-20.05
	c-0.87-1.83-1.79-3.64-2.74-5.44l47.15-47.23H535.48z M482.5,189.34l52.97-53.06v53.06H482.5z M519.1,420.81h-54.19
	c0-0.39,0.01-0.77,0.01-1.16c0-24.45-5.52-47.64-15.36-68.39h59.32c6.66,20.68,10.27,42.72,10.27,65.59
	C519.16,418.17,519.12,419.49,519.1,420.81z M145.55,419.65c0-24.47,5.55-47.66,15.45-68.39h4.55l0.58-1.32
	c4.88,15.43,12.32,29.96,22.14,43.05v27.83h-42.7C145.56,420.43,145.55,420.04,145.55,419.65z M464.08,420.81h-42.69v-27.8
	c9.96-13.27,17.49-28.03,22.37-43.71c0.04,0.08,0.07,0.16,0.11,0.24l0.76,1.72h4.01c9.9,20.73,15.45,43.93,15.45,68.39
	C464.09,420.04,464.08,420.43,464.08,420.81z M385.83,420.81l-57.4-57.49l3.13-14.7h14.82l59.58,59.58
	c-4.65,4.59-9.54,8.79-14.62,12.62H385.83z M389.11,422.47c-0.32,0.23-0.64,0.44-0.96,0.67l-0.67-0.67H389.11z M218.35,420.81
	c-5.09-3.83-9.98-8.03-14.63-12.63l59.57-59.57h15.38l2.86,13.43l-58.88,58.77H218.35z M220.99,422.47l-0.17,0.17
	c-0.08-0.06-0.17-0.11-0.25-0.17H220.99z M202.55,409.35c4.18,4.14,8.57,7.94,13.1,11.46h-24.56L202.55,409.35z M167.14,347.72
	c5.4-11.87,12.48-22.84,21.13-32.69v32.76h-21.11C167.15,347.77,167.14,347.74,167.14,347.72z M164.86,339.14
	c-2.41-10.24-3.71-20.81-3.83-31.57l26.29-0.15c-0.1,0.11-0.19,0.2-0.29,0.31c-0.85,0.88-1.64,1.77-2.39,2.65
	C176.83,319.11,170.22,328.76,164.86,339.14z M223.75,285.27l20.18,20.16l-46.72,0.27c8.03-7.68,16.87-14.52,26.35-20.32
	L223.75,285.27z M217.44,282.39c-9.63,6.2-18.59,13.42-26.66,21.48c-0.29,0.28-0.58,0.58-0.87,0.86v-49.86L217.44,282.39z
	 M188.26,305.75l-27.27,0.16c0,0,0-0.01,0-0.01c0-18.37,3.46-36.2,10-52.79c3.17-2.57,6.39-5.08,9.7-7.45l7.58,7.57V305.75z
	 M159.34,305.9c0,0.01,0,0.02,0,0.02l-35.15,0.2c8.62-13.88,18.81-26.75,30.38-38.32c4.41-4.4,9.04-8.6,13.83-12.6
	C162.47,271.22,159.34,288.31,159.34,305.9z M159.38,307.57c0.13,11.57,1.57,22.92,4.31,33.88c-0.66,1.33-1.3,2.67-1.92,4.02h-55.93
	c2.28-7.75,5.26-15.31,8.88-22.52c1.39-2.75,3.07-6,4.94-9.23c1.13-2,2.3-3.97,3.49-5.93L159.38,307.57z M189.92,313.12
	c0.42-0.47,0.85-0.95,1.32-1.43c1.28-1.38,2.42-2.54,3.6-3.69c0.22-0.22,0.44-0.43,0.66-0.64l50.08-0.29l28.47,28.44l-12.28,12.28
	h-71.86V313.12z M386.47,285.53c8.94,5.45,17.34,11.81,25.01,18.92l-44.16,0.26L386.47,285.53z M448.68,305.9
	c0,11.13-1.29,22.05-3.74,32.63c-5.34-10.14-11.88-19.58-19.52-28.1c-0.79-0.93-1.58-1.81-2.41-2.68c-0.54-0.57-1.09-1.12-1.63-1.68
	v-0.02l27.29-0.16C448.68,305.89,448.68,305.89,448.68,305.9z M442.52,347.79h-21.13V314.6c8.67,9.74,15.83,20.65,21.33,32.46
	C442.65,347.3,442.59,347.55,442.52,347.79z M421.39,304.39v-50.81l8-7.94c3.09,2.2,6.1,4.52,9.07,6.89
	c6.49,16.25,9.98,33.71,10.18,51.71L421.39,304.39z M419.74,304.37c-0.15-0.15-0.3-0.31-0.45-0.47
	c-8.17-8.09-17.21-15.32-26.9-21.51l27.36-27.16V304.37z M413.22,306.09c0.67,0.64,1.34,1.27,1.99,1.92
	c1.22,1.22,2.41,2.43,3.6,3.71c0.31,0.33,0.62,0.66,0.93,1v35.07h-71.86L336.09,336l29.57-29.62L413.22,306.09z M278.73,333.17
	l6.61-6.61c3.35,3.21,7.48,5.6,12.08,6.87l6.37,6.38l-5.67,5.66H285.2l-4.89-4.89L278.73,333.17z M279.24,339.52l-3.43-3.42
	l2.22-2.22L279.24,339.52z M329.79,341.14l-4.33,4.34h-14.85l-4.95-4.96v-1.4l5.28-5.27c5.17-1.11,9.81-3.64,13.52-7.14l6.93,6.93
	L329.79,341.14z M332.08,334.33l2.25,2.25l-3.48,3.48L332.08,334.33z M337.12,306.54l-4.11,4.11c0.22-1.33,0.36-2.69,0.38-4.08
	L337.12,306.54z M323.55,358.44l-4.93-4.94l2.23-2.24h4.22L323.55,358.44z M285.15,351.26h4.68l1.25,1.25l-4.67,4.66L285.15,351.26z
	 M290.99,351.26h1.33l-0.66,0.66L290.99,351.26z M293.49,351.26H304v12.99l-11.76-11.75L293.49,351.26z M305.66,351.26h9.56
	l2.23,2.24l-11.79,11.81V351.26z M316.38,351.26h3.3l-1.65,1.65L316.38,351.26z M305.66,345.48v-3.79l3.78,3.79H305.66z
	 M305.66,283.42c5.61,0.17,10.7,2.38,14.57,5.92l-14.57,14.57V283.42z M304,303.91l-14.43-14.43c3.82-3.56,8.87-5.81,14.43-6.04
	V303.91z M304,328.65c-5.64-0.24-10.74-2.54-14.58-6.17L304,307.9V328.65z M305.66,307.9l14.72,14.72
	c-3.89,3.62-9.04,5.88-14.72,6.05V307.9z M305.66,334.45c1.32-0.03,2.61-0.16,3.87-0.36l-3.87,3.87V334.45z M321.54,321.45
	l-14.73-14.73l20.79-0.12C327.46,312.33,325.19,317.53,321.54,321.45z M306.84,305.06l14.57-14.57c3.61,3.81,5.9,8.87,6.17,14.45
	L306.84,305.06z M324.33,285.24c-5.11-4.76-11.67-7.44-18.67-7.61v-15.41c5.16,0.04,10.33,0.3,15.35,0.79
	c1.04,0.1,2.06,0.23,3.09,0.36l0.37,0.05c1.3,0.16,2.6,0.33,3.89,0.52c1.46,0.22,2.92,0.46,4.37,0.72c1.42,0.26,2.83,0.54,4.26,0.85
	c1.92,0.4,3.84,0.85,5.76,1.32L324.33,285.24z M304,277.64c-7.16,0.24-13.65,3.14-18.52,7.74l-18.56-18.56
	c1.92-0.48,3.86-0.93,5.79-1.33c1.4-0.3,2.81-0.58,4.23-0.84c1.45-0.26,2.92-0.5,4.39-0.72c1.28-0.19,2.56-0.36,3.87-0.52l0.19-0.02
	c1.09-0.14,2.18-0.27,3.27-0.38c5.03-0.49,10.19-0.75,15.34-0.79V277.64z M302.84,305.08l-20.48,0.12
	c0.21-5.62,2.46-10.71,6.04-14.56L302.84,305.08z M302.82,306.74l-14.56,14.56c-3.51-3.84-5.71-8.88-5.91-14.44L302.82,306.74z
	 M304,334.44v4.42l-5.01-5.02C300.61,334.19,302.29,334.38,304,334.44z M304,345.48h-4.71l4.71-4.71V345.48z M286.61,358.13
	l5.05-5.04L304,365.42v1.55l-12.79,12.81L286.61,358.13z M318.03,354.08l5.31,5.32l-4.24,19.93l-13.15-13.14L318.03,354.08z
	 M326.63,345.48l2.84-2.85l-0.61,2.85H326.63z M325.63,325.54c3.5-3.7,6.02-8.33,7.13-13.48l4.1-4.09l-5.06,23.74L325.63,325.54z
	 M333.36,304.91c-0.27-6.96-3.02-13.47-7.85-18.52l19.08-19.08c0.3,0.08,0.6,0.16,0.9,0.24l-7.96,37.33L333.36,304.91z
	 M265.07,267.32l19.24,19.24c-4.64,4.91-7.54,11.46-7.74,18.69l-3.8,0.02l-8.07-37.84C264.82,267.38,264.95,267.35,265.07,267.32z
	 M276.57,306.89c0.05,1.74,0.24,3.44,0.59,5.09l-3.76-3.76l-0.28-1.3L276.57,306.89z M277.57,313.56c1.23,4.48,3.53,8.52,6.61,11.83
	l-5.86,5.86l-4.6-21.54L277.57,313.56z M284.03,345.48h-2.68l-0.73-3.4L284.03,345.48z M291.42,380.74l12.58-12.6v52.68h-4.05
	L291.42,380.74z M304,422.47v17.37l-3.7-17.37H304z M305.66,422.47h4.26l-4.26,20V422.47z M305.66,420.81v-53.74l13.24,13.22
	l-8.63,40.52H305.66z M329.71,345.48l0.84-3.92l4.38-4.39l10.62,10.62h-13.82l0.49-2.31H329.71z M335.51,335.41l-3.01-3.01
	l5.44-25.51l0.36-0.36l26.19-0.15L335.51,335.41z M338.37,304.88l7.91-37.1c4.87,1.34,9.68,2.89,14.37,4.7
	c0.32,0.13,1.87,0.84,7.2,3.39l-29.06,29.01L338.37,304.88z M249,272.47c4.86-1.87,9.85-3.47,14.9-4.84l8.03,37.63l-1.46,0.01
	l-29.13-29.18C247.72,273.02,248.83,272.54,249,272.47z M272.28,306.92l0.05,0.22l-0.22-0.22L272.28,306.92z M272.65,308.63
	l4.97,23.32l-2.98,2.98l-27.89-27.86l24.2-0.14L272.65,308.63z M275.22,336.68l4.33,4.33l0.95,4.47H278l0.49,2.31h-14.38
	L275.22,336.68z M281.73,363l4.61,21.66l-36.09,36.15h-26.43L281.73,363z M286.55,385.62l7.49,35.19h-42.62L286.55,385.62z
	 M323.77,385.17l35.69,35.64h-43.28L323.77,385.17z M323.98,384.21l4.24-19.92l56.44,56.53h-24.03L323.98,384.21z M407.12,409.36
	l11.45,11.45h-24.54C398.56,417.29,402.94,413.49,407.12,409.36z M408.29,408.19c4.11-4.15,7.91-8.52,11.45-13.06v24.52
	L408.29,408.19z M407.12,407.02l-58.41-58.41h71.03v43.83C415.89,397.53,411.68,402.41,407.12,407.02z M421.39,348.62h20.86
	c-4.6,14.87-11.63,28.89-20.86,41.59V348.62z M450.34,305.9c0-0.01,0-0.01,0-0.02l35.65-0.21c1.67,2.66,3.3,5.35,4.85,8.09
	c1.8,3.08,3.45,6.24,4.96,9.2c3.63,7.21,6.64,14.77,8.96,22.52h-56.38c-0.72-1.58-1.48-3.14-2.25-4.69
	C448.9,329.5,450.34,317.81,450.34,305.9z M450.3,304.23c-0.19-17.21-3.36-33.94-9.26-49.61c5.08,4.18,10,8.58,14.65,13.21
	c11.07,10.95,20.85,23.09,29.25,36.2L450.3,304.23z M385.75,285.08l-19.6,19.63l-26.18,0.15l28.67-28.62
	c0.24,0.11,0.47,0.22,0.72,0.34l1.86,0.89l1.76-1.78c4,1.9,7.9,3.96,11.71,6.18l-1.6,1.59L385.75,285.08z M370,270.48
	c-5.59-2.68-6.81-3.23-7.26-3.4c-4.4-1.7-8.9-3.18-13.44-4.47l40.2-40.2c1.28,0.56,2.56,1.13,3.83,1.72l14.87,7.69L370,270.48z
	 M347.5,262.06l10.77-50.5c10.08,2.62,19.96,5.99,29.6,10.13L347.5,262.06z M346.69,261.89c-2.82-0.75-5.66-1.46-8.5-2.05
	c-1.47-0.32-2.95-0.61-4.43-0.88c-1.51-0.27-3.03-0.52-4.56-0.75c-1.35-0.2-2.69-0.38-4.03-0.54l-0.36-0.05
	c-1.07-0.13-2.15-0.27-3.24-0.38c-5.21-0.51-10.56-0.77-15.92-0.81v-51.61c0.51,0.01,1.03,0.02,1.54,0.04
	c0.51,0.02,1.02,0.04,1.52,0.05l0.93,0.02c1.47,0.03,2.95,0.06,4.43,0.13c14.77,0.58,29.27,2.7,43.4,6.31L346.69,261.89z
	 M304,256.43c-5.35,0.04-10.7,0.3-15.91,0.82c-1.15,0.11-2.28,0.26-3.42,0.4l-0.18,0.02c-1.35,0.16-2.68,0.34-4.02,0.54
	c-1.53,0.23-3.05,0.48-4.57,0.75c-1.48,0.27-2.95,0.56-4.39,0.88c-2.69,0.56-5.36,1.22-8.02,1.92l-10.78-50.52
	c13.97-3.53,28.3-5.61,42.89-6.18c1.47-0.07,2.94-0.1,4.42-0.13l0.91-0.02c0.51-0.01,1.02-0.03,1.53-0.05
	c0.51-0.02,1.02-0.03,1.54-0.04V256.43z M262.69,261.97c-0.17,0.04-0.33,0.09-0.5,0.14l-40.41-40.41
	c9.82-4.21,19.87-7.63,30.12-10.26L262.69,261.97z M260.36,262.6c-4.55,1.3-9.05,2.78-13.45,4.47c-0.25,0.1-0.88,0.34-7.25,3.4
	l-38.2-38.67l14.75-7.63c1.31-0.61,2.62-1.19,3.94-1.77L260.36,262.6z M238.45,277.48l1.86-0.89c0.08-0.04,0.15-0.07,0.23-0.11
	l28.76,28.81l-24.2,0.14l-20.62-20.6l2.22-1.36l-1.65-1.65c3.78-2.2,7.66-4.24,11.63-6.13L238.45,277.48z M188.26,348.62v41.56
	c-9.22-12.7-16.24-26.71-20.84-41.56H188.26z M189.92,348.62h71.03l-58.4,58.4c-4.57-4.62-8.78-9.5-12.63-14.6V348.62z
	 M201.38,408.18l-11.46,11.46V395.1C193.46,399.65,197.27,404.02,201.38,408.18z M217.79,422.47c0.61,0.46,1.22,0.91,1.84,1.36
	l-29.71,29.66v-31.02H217.79z M220.32,424.31c5.26,3.76,10.72,7.15,16.33,10.13l-46.73,46.81v-26.59L220.32,424.31z M221.51,423.12
	l0.66-0.65h26.43l-10.73,10.75C232.24,430.26,226.78,426.87,221.51,423.12z M249.76,422.47h44.62l5.77,27.1
	c-21.19-0.68-42.25-5.99-61.51-15.96L249.76,422.47z M305.66,463.36l15.61,73.19h-15.61V463.36z M304,536.55h-15.06L304,465.97
	V536.55z M315.83,422.47h45.28l10.74,10.73c-19.32,10.16-40.49,15.59-61.79,16.36L315.83,422.47z M362.28,422.47h24.03l1.15,1.15
	c-4.8,3.37-9.76,6.44-14.85,9.16L362.28,422.47z M388.64,424.8l31.1,31.14v23.91l-45.92-45.87
	C378.9,431.26,383.85,428.19,388.64,424.8z M389.33,424.32c0.86-0.61,1.71-1.23,2.56-1.86h27.85v32.31L389.33,424.32z
	 M464.06,422.47c-0.22,12.61-1.9,24.86-4.9,36.6l-36.6-36.6H464.06z M421.39,245.43v-8.38c1.69,1.1,3.37,2.23,5.03,3.38
	L421.39,245.43z M419.74,247.07l-34.45,34.21c-3.8-2.22-7.7-4.29-11.7-6.2l41.47-41.99c1.57,0.95,3.13,1.91,4.67,2.89V247.07z
	 M415.67,232.48l1.76-1.78l-1.88-1.28l4.19-4.19v9.77C418.39,234.15,417.04,233.31,415.67,232.48z M193.99,232.47
	c-1.37,0.83-2.73,1.67-4.08,2.53v-9.23l3.88,3.89l-1.54,1.06L193.99,232.47z M194.59,233.08l41.47,41.99
	c-3.96,1.89-7.84,3.95-11.62,6.15l-34.53-34.52v-10.72C191.46,234.99,193.02,234.03,194.59,233.08z M188.26,245.04l-4.79-4.79
	c1.58-1.09,3.18-2.16,4.79-3.21V245.04z M187.1,422.47l-36.61,36.61c-3-11.74-4.68-24-4.9-36.61H187.1z M188.26,423.64v31.5
	l-29.06,29.01c-3.32-7.46-6.07-15.22-8.22-23.23L188.26,423.64z M188.26,456.31v26.59l-19.48,19.52c-3.42-5.6-6.5-11.43-9.22-17.46
	L188.26,456.31z M188.26,484.07v44.02c-7.13-7.66-13.51-16.01-19.03-24.95L188.26,484.07z M188.26,529.3v7.25h-52.39l32.76-32.81
	C174.32,512.92,180.9,521.48,188.26,529.3z M189.92,531.03c1.83,1.88,3.7,3.72,5.61,5.52h-5.61V531.03z M189.92,529.85v-47.43
	l47.5-47.58c19.74,10.31,41.36,15.75,63.1,16.39l1.77,8.3H304v2.48l-15.9,74.54h-91.36C194.4,534.38,192.12,532.15,189.92,529.85z
	 M322.11,536.55l-16.43-77.02h2.25l1.77-8.32c21.85-0.73,43.57-6.31,63.36-16.8l46.67,46.62v48.81c-2.21,2.31-4.49,4.54-6.84,6.71
	H322.11z M419.74,531.02v5.53h-5.63C416.03,534.75,417.91,532.91,419.74,531.02z M421.39,529.29c7.6-8.08,14.38-16.94,20.18-26.45
	l33.75,33.71h-53.93V529.29z M421.39,528.08v-45.4l19.58,19.56C435.33,511.52,428.75,520.17,421.39,528.08z M421.39,481.51V457.6
	l28.26,28.3c-2.46,5.37-5.22,10.57-8.24,15.6L421.39,481.51z M421.39,456.43v-32.8l37.27,37.27c-2.24,8.35-5.14,16.44-8.65,24.2
	L421.39,456.43z M459.34,461.58l41.69,41.69c-3.29,7.47-6.99,14.75-11.11,21.79l-39.28-39.34
	C454.16,477.99,457.08,469.92,459.34,461.58z M459.84,459.74c3.09-11.95,4.82-24.43,5.05-37.28h54.19
	c-0.7,27.66-6.7,54.48-17.32,79.19L459.84,459.74z M433.51,241.53c-0.6-0.43-1.2-0.89-1.8-1.31l0.76-0.76
	C432.83,240.14,433.17,240.84,433.51,241.53z M431.03,239.72c-0.1-0.07-0.2-0.15-0.31-0.22l-1.98-1.38l-1.73,1.72
	c-1.86-1.29-3.73-2.55-5.63-3.78v-12.48l0.83-0.82c3.64,5.11,6.94,10.42,9.86,15.92L431.03,239.72z M421.39,222.42v-0.83
	c0.12,0.16,0.23,0.32,0.34,0.49L421.39,222.42z M314.32,199.27c-1.51-0.07-3.04-0.1-4.56-0.13l-0.94-0.02
	c-0.47-0.01-0.94-0.03-1.41-0.04c-0.58-0.02-1.17-0.04-1.76-0.04v-8.04h56.16l-3.14,14.71C344.23,202.02,329.4,199.86,314.32,199.27
	z M304,199.03c-0.59,0.01-1.17,0.02-1.76,0.04c-0.47,0.02-0.94,0.04-1.42,0.04l-0.92,0.02c-1.53,0.03-3.05,0.06-4.55,0.13
	c-14.9,0.58-29.55,2.7-43.85,6.3l-3.11-14.58H304V199.03z M188.26,222.94l-0.55-0.55c0.18-0.26,0.36-0.52,0.55-0.77V222.94z
	 M188.26,224.11v11.94c-1.81,1.17-3.61,2.38-5.38,3.61l-1.55-1.55l-1.99,1.4c-0.05,0.03-0.09,0.07-0.13,0.1l-1.38-1.38
	c2.79-5.23,5.96-10.27,9.41-15.15L188.26,224.11z M178.53,240.1c-0.88,0.63-1.74,1.28-2.62,1.92c0.5-1.01,1-2.02,1.52-3.02
	L178.53,240.1z M98.97,348.62l-0.7,2.65h1.62c-6.63,20.69-10.23,42.72-10.23,65.59c0,1.32,0.04,2.64,0.06,3.97H74.18v-72.2H98.97z
	 M90.49,416.85c0-22.87,3.61-44.9,10.27-65.59h59.32c-9.84,20.75-15.36,43.94-15.36,68.39c0,0.39,0.01,0.77,0.01,1.16H90.55
	C90.52,419.49,90.49,418.17,90.49,416.85z M144.76,422.47c0.22,12.85,1.96,25.34,5.05,37.29l-41.91,41.91
	c-10.63-24.71-16.63-51.53-17.33-79.19H144.76z M150.31,461.59c2.17,7.99,4.94,15.74,8.27,23.18l-39.42,39.35
	c-3.9-6.74-7.41-13.7-10.54-20.84L150.31,461.59z M118.55,524.73l-0.7,0.7c-5.64-4.81-11.09-9.82-16.34-15.04l6.48-6.48
	C111.13,511.04,114.65,517.99,118.55,524.73z M118.99,525.46c0.37,0.63,0.74,1.25,1.11,1.87c-0.54-0.45-1.08-0.91-1.62-1.37
	L118.99,525.46z M122.75,531.64c1.04,1.65,2.1,3.29,3.19,4.91h-18.05l9.43-9.41C119.1,528.66,120.92,530.16,122.75,531.64z
	 M124.75,533.25c1.4,1.11,2.82,2.21,4.24,3.29h-2.06C126.2,535.46,125.47,534.36,124.75,533.25z M122,528.92
	c-0.82-1.34-1.62-2.7-2.41-4.06l39.34-39.27c2.73,6.02,5.82,11.84,9.25,17.43l-33.48,33.53h-3
	C128.42,534.07,125.18,531.53,122,528.92z M304,538.2v27.28h-21.23l5.82-27.28H304z M305.66,538.2h15.97l5.82,27.28h-21.79V538.2z
	 M490.09,526.41l0.24,0.24c-0.26,0.22-0.52,0.44-0.78,0.66C489.73,527.01,489.91,526.71,490.09,526.41z M490.53,525.68
	c4.12-7.04,7.84-14.31,11.14-21.77l6.47,6.47c-5.51,5.47-11.24,10.72-17.17,15.74L490.53,525.68z M519.92,420.81
	c0.02-1.32,0.06-2.64,0.06-3.97c0-22.86-3.59-44.9-10.23-65.59h2.63l-0.72-2.65h23.81v72.2H519.92z M511.44,347.79l-0.05-0.17
	c-2.54-9.4-6.05-18.58-10.42-27.27l-0.01-0.02c-1.55-3.04-3.25-6.29-5.1-9.46c-1-1.76-2.04-3.5-3.09-5.24l42.71-0.25v42.41H511.44z
	 M535.48,130.07c-2.94-3.84-5.97-7.61-9.09-11.3l9.09-9.07V130.07z M535.48,132.79v2.32l-54.14,54.23H455.7l69.51-69.39
	C528.75,124.13,532.18,128.41,535.48,132.79z M479.68,190.99l-46.38,46.45c-2.93-5.48-6.26-10.77-9.9-15.87l30.64-30.59H479.68z
	 M422.92,220.89c-0.51-0.7-1.01-1.41-1.53-2.1v-27.8h31.48L422.92,220.89z M407.12,202.44c-4.15-4.11-8.52-7.91-13.06-11.45h24.51
	L407.12,202.44z M405.95,203.61l-13.69,13.69c-10.67-4.71-21.61-8.51-32.78-11.4l3.18-14.91h28.71
	C396.46,194.84,401.34,199.05,405.95,203.61z M363.01,189.34l2.93-13.73c8.11,3.81,15.87,8.41,23.19,13.73H363.01z M362.17,189.34
	h-56.51v-27.27c20.89,0.12,41.09,4.66,59.52,13.19L362.17,189.34z M305.66,160.42V75.25h80.85l-20.98,98.35
	C346.97,165.08,326.67,160.53,305.66,160.42z M304,160.42c-20.82,0.12-40.94,4.59-59.36,12.97l-20.93-98.14H304V160.42z M304,162.07
	v27.27h-55.96l-3.05-14.29C263.29,166.67,283.3,162.19,304,162.07z M247.2,189.34h-26.66c7.47-5.43,15.39-10.1,23.68-13.95
	L247.2,189.34z M247.55,190.99l3.15,14.78c-11.34,2.9-22.46,6.75-33.31,11.53l-13.68-13.68c4.62-4.57,9.49-8.78,14.59-12.63H247.55z
	 M202.55,202.45l-11.46-11.46h24.53C211.08,194.53,206.7,198.34,202.55,202.45z M188.26,218.81c-0.59,0.79-1.16,1.59-1.73,2.39
	l-30.17-30.22h31.9V218.81z M186.05,221.89c-3.46,4.87-6.62,9.9-9.44,15.12l-46.08-46.02h24.66L186.05,221.89z M128.88,189.34
	l-54.7-54.64v-1.95c3.27-4.34,6.66-8.58,10.16-12.72l69.2,69.31H128.88z M74.18,130.04v-20.19l8.99,9
	C80.09,122.51,77.09,126.24,74.18,130.04z M74.18,422.47h15.56c0.7,27.89,6.78,54.92,17.53,79.82l-6.93,6.93
	c-9.39-9.44-18.14-19.53-26.16-30.19V422.47z M99.17,510.39l-24.16,24.16c-0.54-3.49-0.82-7.07-0.83-10.71v-42.1
	C81.89,491.83,90.24,501.4,99.17,510.39z M100.34,511.56c5.25,5.22,10.7,10.23,16.33,15.04l-9.97,9.95H75.37c0,0,0-0.01,0-0.01
	L100.34,511.56z M197.31,538.2c12.23,11.11,26.19,20.35,41.41,27.28h-48.8V538.2H197.31z M198.56,538.2h89.19l-5.82,27.28h-41.17
	C225.24,558.64,211.02,549.39,198.56,538.2z M281.58,567.14l-2.09,9.79c-12.12-1.95-23.79-5.27-34.84-9.79H281.58z M282.42,567.14
	H304v11.81c-8.05-0.04-15.97-0.68-23.7-1.88L282.42,567.14z M304,579.77v14.62c-9.14-0.03-18.18-0.48-27.11-1.35l3.24-15.17
	C287.92,579.09,295.89,579.73,304,579.77z M305.66,579.77c8.3-0.04,16.45-0.72,24.41-1.99l3.24,15.21c-9.1,0.9-18.33,1.37-27.65,1.4
	V579.77z M305.66,578.94v-11.81h22.14l2.1,9.84C321.99,578.23,313.9,578.9,305.66,578.94z M328.64,567.14h36.36
	c-10.88,4.46-22.36,7.74-34.29,9.7L328.64,567.14z M328.29,565.48l-5.82-27.28h88.62c-12.46,11.18-26.69,20.43-42.2,27.28H328.29z
	 M412.33,538.2h7.41v27.28h-48.82C386.14,558.55,400.1,549.31,412.33,538.2z M483.71,536.55c1.09-1.63,2.16-3.27,3.2-4.93
	c1.54-1.25,3.08-2.51,4.59-3.79l8.71,8.72H483.71z M492.14,527.29c5.93-5.02,11.66-10.27,17.16-15.74l24.99,24.99
	c0,0.01,0,0.01,0,0.02h-32.9L492.14,527.29z M537.13,190.99h27.28v112.57l-27.28,0.16V190.99z M535.48,88.09v20.45l-9.62,9.61
	c-4.91-5.77-10.03-11.35-15.37-16.72l24.16-24.16C535.19,80.79,535.48,84.41,535.48,88.09z M524.68,119.31l-70.15,70.03h-31.97
	l86.75-86.75C514.65,107.95,519.77,113.54,524.68,119.31z M421.39,188.17V75.25h56.56c10.66,8.02,20.75,16.77,30.2,26.16
	L421.39,188.17z M419.74,189.34h-27.8c-8.05-6.04-16.63-11.18-25.64-15.39l21.05-98.7h32.39V189.34z M387.7,73.6l5.82-27.28h26.21
	V73.6H387.7z M386.86,73.6h-81.2V46.32h87.02L386.86,73.6z M304,73.6h-80.65l-5.82-27.28H304V73.6z M222.51,73.6h-32.59V46.32h26.77
	L222.51,73.6z M222.86,75.25l21.01,98.48c-9.19,4.24-17.94,9.46-26.14,15.61h-27.82V75.25H222.86z M188.26,188.17L101.5,101.4
	c9.44-9.39,19.53-18.13,30.19-26.15h56.58V188.17z M187.09,189.34h-32.38L84.88,119.4c4.93-5.81,10.08-11.43,15.45-16.83
	L187.09,189.34z M83.71,118.23l-9.53-9.54V87.96c0.01-3.64,0.29-7.22,0.83-10.71l24.15,24.15C93.79,106.8,88.64,112.42,83.71,118.23
	z M72.53,306.43l-27.28,0.16v-115.6h27.28V306.43z M72.53,308.08v39.71H45.25v-39.55L72.53,308.08z M72.53,348.62v72.2H45.25v-72.2
	H72.53z M131.15,538.2c0.36,0.27,0.73,0.54,1.1,0.81l-2.14,2.14c-0.69-0.98-1.38-1.96-2.06-2.95H131.15z M134.22,538.2h54.04v27.28
	H179c-15.83-7.7-30.84-16.81-44.89-27.16L134.22,538.2z M188.26,567.14v2.64c-1.94-0.86-3.86-1.74-5.78-2.64H188.26z M189.92,567.14
	h52.56c11.64,4.94,23.99,8.53,36.84,10.6l-3.25,15.23c-30.34-3.02-59.29-10.76-86.15-22.47V567.14z M330.88,577.65
	c12.65-2.08,24.81-5.64,36.29-10.51h52.57v3.36c-26.69,11.64-55.46,19.37-85.6,22.42L330.88,577.65z M421.39,567.14h5.76
	c-1.91,0.9-3.83,1.78-5.76,2.63V567.14z M421.39,565.48V538.2h54.29c-14.1,10.4-29.17,19.55-45.05,27.28H421.39z M478.48,538.2h3.11
	c-0.47,0.68-0.92,1.36-1.4,2.04l-1.9-1.9C478.36,538.3,478.42,538.25,478.48,538.2z M537.13,348.62h27.28v72.2h-27.28V348.62z
	 M537.13,347.79v-42.42l27.28-0.16v42.58H537.13z M566.06,303.55V190.99h3.36c15.04,34.51,23.52,72.5,23.86,112.4L566.06,303.55z
	 M566.06,189.34v-5.78c0.9,1.91,1.78,3.84,2.64,5.78H566.06z M564.41,189.34h-27.28v-54.31c10.4,14.1,19.55,29.17,27.28,45.05
	V189.34z M538.14,133.61l26.27-26.31v69.08C556.87,161.33,548.07,147.02,538.14,133.61z M537.13,106.88V75.27
	c7.96,0.11,15.53,1.87,22.39,4.94c0.45,1.01,0.87,2.03,1.26,3.06L537.13,106.88z M534.29,75.27l-24.98,24.98
	c-8.99-8.94-18.56-17.28-28.65-24.99h53.62C534.29,75.26,534.29,75.27,534.29,75.27z M478.51,73.6
	c-13.81-10.35-28.58-19.49-44.13-27.28h72.99v-0.83l0.03,0.83c5.49,0,10.86,0.79,15.99,2.28c5.04,7.45,8.68,15.91,10.59,25H478.51z
	 M475.71,73.6h-54.32V46.32h9.28C446.55,54.05,461.62,63.2,475.71,73.6z M421.39,44.67v-2.65c1.95,0.86,3.88,1.75,5.8,2.65H421.39z
	 M393.03,44.67h-87.38V17.4c31.45,0.09,61.72,5.24,90.06,14.67L393.03,44.67z M304,44.67h-86.82l-2.72-12.77
	c28.19-9.32,58.29-14.41,89.54-14.5V44.67z M188.26,44.67h-5.82c1.93-0.91,3.87-1.8,5.82-2.66V44.67z M188.26,46.32V73.6h-54.34
	c14.1-10.4,29.16-19.55,45.04-27.28H188.26z M131.13,73.6H75.68c1.9-9.09,5.55-17.55,10.58-25c5.14-1.49,10.51-2.28,16.01-2.28
	c0,0,0.01,0,0.01,0h72.96C159.7,54.11,144.93,63.25,131.13,73.6z M128.97,75.25c-10.08,7.71-19.66,16.05-28.64,24.98L75.36,75.27
	c0-0.01,0-0.01,0-0.02H128.97z M72.53,87.96c0,0.04,0,0.08,0,0.13v18.94l-23.67-23.7c0.39-1.05,0.82-2.08,1.27-3.11
	c6.86-3.07,14.43-4.83,22.39-4.94V87.96z M72.53,108.2v24.01c-0.12,0.16-0.24,0.32-0.36,0.48L45.25,105.8v-2.47
	c0-6.63,1.13-13.09,3.29-19.16L72.53,108.2z M71.67,133.36c-10,13.47-18.85,27.85-26.42,42.96v-69.36L71.67,133.36z M72.53,134.99
	v54.34H45.25v-9.3C52.98,164.15,62.13,149.09,72.53,134.99z M43.59,189.34h-2.66c0.87-1.95,1.76-3.89,2.66-5.83V189.34z
	 M43.59,190.99V306.6l-27.27,0.16c0-0.2-0.01-0.41-0.01-0.61v-0.51c0.04-40.72,8.57-79.49,23.89-114.65H43.59z M43.59,308.25v39.54
	H19.36c-1.88-12.87-2.91-26.02-3.02-39.38L43.59,308.25z M43.59,422.47v5.8c-0.9-1.92-1.79-3.86-2.65-5.8H43.59z M45.25,422.47
	h27.28v54.32c-10.4-14.09-19.55-29.16-27.28-45.04V422.47z M73.7,538.2h0.29c1.64,8.02,4.61,15.55,8.66,22.36l-1.05,1.05
	c-7.03-2.73-13.49-6.87-19.05-12.27L73.7,538.2z M75.68,538.2h29.37l-21.19,21.16C80.06,552.89,77.26,545.77,75.68,538.2z
	 M106.22,538.2h20.83c0.81,1.19,1.63,2.37,2.46,3.54l-23.7,23.74h-3.56c-5.49,0-10.87-0.79-16-2.28c-0.69-1.02-1.34-2.05-1.97-3.1
	L106.22,538.2z M130.01,542.42c5.82,8.09,12.19,15.81,19.13,23.06h-42.16L130.01,542.42z M130.6,541.83l2.32-2.33
	c13.3,9.81,27.47,18.52,42.37,25.98h-25C143.14,558.06,136.57,550.14,130.6,541.83z M178.61,567.14c3.18,1.54,6.4,3.02,9.65,4.45
	v22.84h-3.54c-11.94-8.07-22.9-17.23-32.8-27.28H178.61z M189.92,572.31c26.27,11.37,54.54,18.98,84.13,22.11h-84.13V572.31z
	 M419.74,572.3v22.12h-84.15C365.18,591.29,393.46,583.68,419.74,572.3z M421.39,571.57c3.24-1.43,6.45-2.9,9.63-4.44h26.7
	c-9.9,10.05-20.85,19.21-32.8,27.28h-3.53V571.57z M434.34,565.48c15.23-7.63,29.71-16.56,43.28-26.64l2.08,2.08
	c-6.14,8.65-12.93,16.87-20.35,24.56H434.34z M480.29,541.51l24,23.97H460.5C467.7,557.96,474.3,549.94,480.29,541.51z
	 M480.78,540.83c0.61-0.87,1.2-1.75,1.8-2.63h19.28l22.87,22.91c-0.43,0.69-0.87,1.39-1.32,2.06c-5.09,1.49-10.46,2.31-16.03,2.31
	c0,0-0.01,0-0.01,0h-1.91L480.78,540.83z M525.2,560.4l-22.16-22.19h30.94C532.31,546.17,529.3,553.66,525.2,560.4z M537.13,479.55
	c10.35-13.81,19.49-28.58,27.28-44.14v73.06c0,8.24-1.77,16.06-4.93,23.14c-6.85,3.06-14.4,4.8-22.35,4.92V479.55z M537.13,476.76
	v-54.29h27.28v9.24C556.68,447.59,547.53,462.66,537.13,476.76z M566.06,422.47h2.63c-0.86,1.93-1.73,3.85-2.63,5.75V422.47z
	 M566.06,420.81v-72.2h24.09c-3.77,25.28-10.84,49.49-20.74,72.2H566.06z M591.82,348.62h1.52v72.2h-22.12
	C581.06,398.09,588.08,373.88,591.82,348.62z M591.94,347.79c0.54-3.69,1.01-7.41,1.41-11.15v11.15H591.94z M571.23,190.99h22.11
	v84.15C590.21,245.55,582.61,217.27,571.23,190.99z M593.35,189.34h-22.84c-1.43-3.24-2.9-6.46-4.44-9.64v-74.06l12.06-12.08
	c9.44,10.18,15.22,23.79,15.22,38.74V189.34z M577.55,92.96l-11.49,11.51v-1.1c0-7.12-1.27-14.04-3.68-20.52l0.83-0.83
	C568.56,84.89,573.39,88.6,577.55,92.96z M562.44,81.62L562.06,82c-0.09-0.24-0.18-0.48-0.28-0.72
	C562,81.39,562.22,81.51,562.44,81.62z M558.46,77.96c-6.27-2.57-13.08-4.07-20.21-4.31l10.03-10.03
	C552.45,67.91,555.86,72.74,558.46,77.96z M547.11,62.45L535.96,73.6h-0.29c-1.79-8.75-5.17-16.92-9.81-24.22
	C533.74,52.07,540.98,56.49,547.11,62.45z M521.87,46.46c-4.68-1.18-9.53-1.79-14.48-1.8h-76.34c-3.19-1.55-6.41-3.02-9.67-4.46
	V17.39h43.38C488.21,17.39,509,28.85,521.87,46.46z M398.85,17.39l-2.79,13.06c-19.29-6.41-39.46-10.84-60.29-13.06H398.85z
	 M214.11,30.27l-2.75-12.88h62.5C253.23,19.58,233.23,23.96,214.11,30.27z M144.88,17.39h43.38V40.2c-3.26,1.44-6.49,2.92-9.69,4.47
	h-76.29c-0.01,0-0.01,0-0.01,0c-4.95,0-9.81,0.61-14.49,1.8C100.65,28.85,121.45,17.39,144.88,17.39z M73.98,73.6h-0.29L62.55,62.45
	c6.13-5.96,13.37-10.38,21.25-13.07C79.16,56.68,75.77,64.85,73.98,73.6z M61.38,63.62l10.03,10.03
	c-7.13,0.23-13.94,1.74-20.21,4.31C53.79,72.74,57.21,67.91,61.38,63.62z M47.58,82.04l-0.4-0.4c0.23-0.12,0.46-0.24,0.7-0.36
	C47.77,81.53,47.68,81.79,47.58,82.04z M46.41,82.04l0.85,0.85c-2.4,6.46-3.66,13.37-3.66,20.47v0.79L32.25,92.81
	C36.36,88.53,41.13,84.88,46.41,82.04z M31.67,93.41l11.92,11.9v74.33c-1.55,3.2-3.03,6.43-4.47,9.69H16.31V132.3
	C16.31,117.28,22.16,103.61,31.67,93.41z M16.31,190.99H38.4c-11.35,26.21-18.94,54.41-22.09,83.92V190.99z M17.69,347.79h-1.38
	v-10.91C16.7,340.53,17.17,344.17,17.69,347.79z M16.31,479.51v-57.04h22.82c1.43,3.25,2.91,6.48,4.46,9.67v76.3
	c0,7.69,1.47,15.16,4.28,22.08C29.18,521.14,16.31,501.81,16.31,479.51z M51.2,533.85c6.27,2.57,13.08,4.07,20.21,4.31l-10.03,10.03
	C57.21,543.89,53.79,539.06,51.2,533.85z M82.44,561.94l0.64-0.64c0.23,0.38,0.48,0.74,0.72,1.12
	C83.34,562.27,82.89,562.11,82.44,561.94z M87.78,565.34c4.68,1.18,9.55,1.8,14.51,1.8h1.88l-7.87,7.88
	C93.18,572.06,90.32,568.82,87.78,565.34z M96.9,575.59l8.43-8.45h45.43c9.81,10.04,20.67,19.19,32.51,27.28h-38.39
	C126.38,594.42,109.52,587.26,96.9,575.59z M426.37,594.42c11.83-8.09,22.7-17.24,32.51-27.28h47.07l7.65,7.64
	c-12.7,12.15-29.9,19.64-48.83,19.64H426.37z M514.2,574.21l-7.08-7.07h0.25c0.01,0,0.01,0,0.01,0c5.01,0,9.87-0.63,14.51-1.82
	C519.57,568.49,517,571.47,514.2,574.21z M535.67,538.2h0.29l11.13,11.13c-5.96,5.79-13.18,10.29-21.21,13.05
	C530.51,555.1,533.89,546.94,535.67,538.2z M548.26,548.17l-10.01-10.01c7.11-0.23,13.91-1.73,20.17-4.29
	C555.78,539.15,552.34,543.97,548.26,548.17z M561.73,530.55c2.79-6.83,4.34-14.29,4.34-22.11v-76.35c1.54-3.17,3.01-6.39,4.44-9.62
	h22.85v57.04C593.35,501.83,580.45,521.19,561.73,530.55z"/>
</svg>
