<svg width="21" height="20" viewBox="0 0 21 20" fill="none" xmlns="http://www.w3.org/2000/svg">
<path d="M15.7524 2H6.77649C6.1028 2 5.4567 2.26762 4.98032 2.744C4.50395 3.22037 4.23633 3.86647 4.23633 4.54016V15.2728C4.23633 15.9464 4.50395 16.5925 4.98032 17.0689C5.4567 17.5453 6.1028 17.8129 6.77649 17.8129H15.7524C16.4261 17.8129 17.0722 17.5453 17.5486 17.0689C18.0249 16.5925 18.2926 15.9464 18.2926 15.2728V4.54016C18.2926 3.86647 18.0249 3.22037 17.5486 2.744C17.0722 2.26762 16.4261 2 15.7524 2Z" stroke="#F58634" stroke-width="1.5" stroke-linecap="round" stroke-linejoin="round"/>
<path d="M2.69922 5.51381H5.33464" stroke="#F58634" stroke-width="1.5" stroke-linecap="round" stroke-linejoin="round"/>
<path d="M2.69922 9.90584H5.33464" stroke="#F58634" stroke-width="1.5" stroke-linecap="round" stroke-linejoin="round"/>
<path d="M2.69922 14.298H5.33464" stroke="#F58634" stroke-width="1.5" stroke-linecap="round" stroke-linejoin="round"/>
<path d="M10.1252 12.9966L8.0498 13.1577L8.36732 11.234L12.6011 7.01769C12.8339 6.78507 13.1495 6.65439 13.4786 6.65439C13.8077 6.65439 14.1234 6.78507 14.3562 7.01769C14.4718 7.13289 14.5636 7.2698 14.6262 7.42057C14.6889 7.57133 14.7211 7.73298 14.7211 7.89623C14.7211 8.05948 14.6889 8.22113 14.6262 8.37189C14.5636 8.52266 14.4718 8.65957 14.3562 8.77477L10.1252 12.9966Z" stroke="#F58634" stroke-linecap="round" stroke-linejoin="round"/>
<path d="M12.1924 7.55024L13.8173 9.17515" stroke="#F58634" stroke-linecap="round" stroke-linejoin="round"/>
</svg>
