<svg width="37" height="36" viewBox="0 0 37 36" fill="none" xmlns="http://www.w3.org/2000/svg">
<path d="M18.25 36C28.1911 36 36.25 27.9411 36.25 18C36.25 8.05887 28.1911 0 18.25 0C8.30887 0 0.25 8.05887 0.25 18C0.25 27.9411 8.30887 36 18.25 36Z" fill="#0D2473"/>
<path d="M6.86593 15.6525C6.92549 15.4106 7.02997 15.1819 7.17393 14.9785C7.4546 14.4289 7.88551 13.9702 8.41658 13.6558C8.94765 13.3414 9.55705 13.1842 10.1739 13.2025H12.1829C12.4619 13.1715 12.7443 13.1958 13.0139 13.274C13.2836 13.3521 13.5351 13.4827 13.7543 13.6581C13.9734 13.8335 14.1559 14.0504 14.2912 14.2963C14.4265 14.5423 14.5121 14.8125 14.5429 15.0915C14.5639 15.2721 14.5613 15.4546 14.5349 15.6345C14.3972 17.1861 14.1222 18.7225 13.7129 20.2255C13.5181 20.9342 13.0865 21.5548 12.4899 21.9842C11.8934 22.4135 11.1678 22.6258 10.4339 22.5855C10.0339 22.5855 9.63393 22.6045 9.24193 22.6125C8.46482 22.6857 7.68255 22.5435 6.98093 22.2015C6.82893 22.1015 6.68093 22.1625 6.64393 22.4235C6.47493 23.5625 6.26793 24.6955 6.08493 25.8325C6.07869 25.975 6.04071 26.1143 5.97375 26.2403C5.9068 26.3662 5.81256 26.4756 5.69793 26.5605H5.22293C5.11853 26.4973 5.04042 26.3986 5.00293 26.2825C5.01693 26.1285 5.25793 24.6915 5.25793 24.6915C5.56393 22.9105 6.66193 16.8885 6.86593 15.6525ZM9.68293 21.6005H10.7359C11.1181 21.5881 11.4906 21.4768 11.8169 21.2775C12.1315 21.0666 12.3935 20.7862 12.5825 20.458C12.7715 20.1298 12.8825 19.7625 12.9069 19.3845C13.1129 18.2845 13.3019 17.1905 13.4949 16.0955C13.6124 15.725 13.5782 15.323 13.3997 14.9777C13.2213 14.6324 12.9131 14.372 12.5429 14.2535C12.3537 14.194 12.1544 14.1729 11.9569 14.1915C11.3049 14.1749 10.6519 14.1749 9.99793 14.1915C9.45825 14.1866 8.93549 14.3797 8.5286 14.7343C8.1217 15.0888 7.8589 15.5802 7.78993 16.1155C7.58393 17.2875 7.34793 18.4555 7.12793 19.6245C6.99971 20.0048 7.02775 20.4205 7.20589 20.7802C7.38403 21.1398 7.69769 21.414 8.07793 21.5425C8.3016 21.617 8.53942 21.6389 8.77293 21.6065L9.68293 21.6005Z" fill="#FDFDFE"/>
<path d="M27.0442 22.6229C26.4524 22.6177 25.8771 22.4271 25.3992 22.0779C25.0422 21.7883 24.7819 21.3968 24.6531 20.9555C24.5243 20.5142 24.533 20.0441 24.6782 19.6079C24.8842 18.3969 25.0892 17.1879 25.3262 15.9839C25.466 15.2063 25.8788 14.5041 26.4901 14.0037C27.1015 13.5033 27.8713 13.2374 28.6612 13.2539C29.6117 13.1944 30.5656 13.2256 31.5102 13.3469C31.8303 13.4295 32.1317 13.5724 32.3982 13.7679C32.7223 14.0856 32.9558 14.4841 33.0746 14.9221C33.1934 15.3601 33.1933 15.8219 33.0742 16.2599C32.9652 16.7859 32.8682 17.3189 32.7842 17.8489C32.7785 17.9363 32.7556 18.0216 32.7169 18.1001C32.6781 18.1786 32.6243 18.2487 32.5584 18.3064C32.4926 18.3641 32.416 18.4082 32.3331 18.4362C32.2502 18.4643 32.1625 18.4757 32.0752 18.4699H32.0342C31.4342 18.4699 30.8342 18.4819 30.2292 18.4909L26.1172 18.4619C25.9632 18.4619 25.8332 18.4809 25.8002 18.6679C25.6891 19.1473 25.6082 19.6333 25.5582 20.1229C25.5417 20.3774 25.5967 20.6314 25.7168 20.8563C25.837 21.0812 26.0175 21.2681 26.2382 21.3959C27.8246 21.6513 29.4338 21.7354 31.0382 21.6469C31.3552 21.6469 31.8602 21.6079 31.8462 22.0379C31.8232 22.6299 31.4572 22.6219 31.0692 22.6299H30.9092C29.6752 22.6299 28.4422 22.6299 27.2092 22.6109L27.0442 22.6229ZM30.4572 17.4959C31.9972 17.4959 32.0052 17.4959 32.1762 15.9339C32.2972 14.8339 31.7222 14.3509 30.7372 14.2069C29.9129 14.1247 29.0825 14.1247 28.2582 14.2069C27.7938 14.2471 27.354 14.4332 27.0017 14.7386C26.6495 15.0439 26.4029 15.4529 26.2972 15.9069C26.2072 16.3179 26.1672 16.7289 26.0672 17.1259C25.9872 17.4469 26.1122 17.5079 26.3982 17.5039C27.2562 17.4919 29.9642 17.4919 30.4572 17.4919V17.4959Z" fill="#FDFDFE"/>
<path d="M18.0477 22.6306H15.8477C15.5847 22.6306 15.3567 22.5796 15.3257 22.2706C15.316 22.2043 15.3194 22.1366 15.3359 22.0716C15.3523 22.0066 15.3815 21.9455 15.4216 21.8918C15.4617 21.8381 15.5121 21.7929 15.5698 21.7587C15.6275 21.7245 15.6913 21.702 15.7577 21.6926H15.7767C15.9181 21.6695 16.0617 21.6618 16.2047 21.6696H20.2177C20.6938 21.6739 21.1567 21.5129 21.5272 21.214C21.8978 20.9151 22.1532 20.4968 22.2497 20.0306C22.2934 19.8542 22.3019 19.6709 22.2747 19.4911C22.2475 19.3114 22.1852 19.1388 22.0914 18.9832C21.9975 18.8276 21.8739 18.692 21.7276 18.5841C21.5813 18.4762 21.4152 18.3983 21.2387 18.3546C21.1189 18.3262 20.9959 18.3131 20.8727 18.3156C20.0917 18.2996 19.3107 18.3156 18.5287 18.3156C18.1676 18.3414 17.8059 18.2745 17.478 18.1211C17.1501 17.9677 16.8669 17.7329 16.6553 17.4392C16.4438 17.1454 16.3109 16.8024 16.2693 16.4428C16.2277 16.0832 16.2788 15.7189 16.4177 15.3846C16.6098 14.7579 17.0005 14.2106 17.5308 13.8253C18.0611 13.44 18.7023 13.2376 19.3577 13.2486C20.6327 13.2276 21.9067 13.2486 23.1817 13.2486C23.4597 13.2486 23.7737 13.2486 23.7817 13.6226C23.7897 13.9966 23.5477 14.1946 23.1647 14.1966H19.2477C18.8518 14.18 18.4606 14.2877 18.1289 14.5044C17.7971 14.7212 17.5415 15.0363 17.3977 15.4056C17.2831 15.6143 17.2268 15.8501 17.2348 16.0881C17.2428 16.3261 17.3147 16.5575 17.4429 16.7581C17.5712 16.9587 17.7512 17.1211 17.9639 17.2282C18.1766 17.3352 18.4142 17.3831 18.6517 17.3666C19.3997 17.3856 20.1517 17.3666 20.8987 17.3666C21.2674 17.3302 21.6392 17.3892 21.9785 17.538C22.3177 17.6868 22.613 17.9204 22.836 18.2162C23.0589 18.5121 23.202 18.8603 23.2515 19.2274C23.3011 19.5945 23.2553 19.9682 23.1187 20.3126C22.9154 20.9723 22.5085 21.5508 21.9563 21.9652C21.4041 22.3796 20.735 22.6086 20.0447 22.6196C19.3877 22.6306 18.7177 22.6306 18.0477 22.6306Z" fill="#FDFDFE"/>
</svg>
