<svg width="21" height="20" viewBox="0 0 21 20" fill="none" xmlns="http://www.w3.org/2000/svg">
<path d="M16.4917 6.20484H4.56624C4.42624 6.20479 4.2876 6.23232 4.15824 6.28586C4.02888 6.3394 3.91133 6.41791 3.81232 6.51689C3.7133 6.61587 3.63476 6.73338 3.58117 6.86272C3.52758 6.99206 3.5 7.1307 3.5 7.2707V15.9341C3.5 16.0741 3.52758 16.2128 3.58117 16.3421C3.63476 16.4714 3.7133 16.589 3.81232 16.6879C3.91133 16.7869 4.02888 16.8654 4.15824 16.919C4.2876 16.9725 4.42624 17 4.56624 17H16.4917C16.7744 17 17.0455 16.8877 17.2454 16.6878C17.4453 16.4879 17.5576 16.2168 17.5576 15.9341V7.2707C17.5576 6.98802 17.4453 6.71691 17.2454 6.51702C17.0455 6.31713 16.7744 6.20484 16.4917 6.20484Z" stroke="#F58634" stroke-width="1.2" stroke-linecap="round" stroke-linejoin="round"/>
<path d="M7.47363 3V5.86735" stroke="#F58634" stroke-width="1.2" stroke-linecap="round" stroke-linejoin="round"/>
<path d="M14.2217 3V5.86735" stroke="#F58634" stroke-width="1.2" stroke-linecap="round" stroke-linejoin="round"/>
<path d="M10.3818 9.28474V13.2452" stroke="#F58634" stroke-width="1.2" stroke-linecap="round" stroke-linejoin="round"/>
<path d="M12.3623 11.2653H8.40527" stroke="#F58634" stroke-width="1.2" stroke-linecap="round" stroke-linejoin="round"/>
<path d="M14.2209 3H7.47363" stroke="#F58634" stroke-width="1.2" stroke-linecap="round" stroke-linejoin="round"/>
</svg>
