<svg id="Componente_416_161" data-name="Componente 416 – 161" xmlns="http://www.w3.org/2000/svg" width="16.522" height="16.119" viewBox="0 0 16.522 16.119">
  <path id="Trazado_10012" data-name="Trazado 10012" d="M88.308,10.787h-7.1l2.633-2.614L82.677,7.014l-3.5,3.479h0L78,11.653l1.168,1.16h0l3.5,3.479,1.168-1.16-2.679-2.659h7.187a4.527,4.527,0,0,1,4.544,4.51h0a4.527,4.527,0,0,1-4.544,4.51H82.961l1.652,1.64h3.695a6.2,6.2,0,0,0,6.219-6.173h0A6.2,6.2,0,0,0,88.308,10.787Z" transform="translate(-78.004 -7.014)" fill="#040405" opacity="0.5"/>
</svg>
