<?xml version="1.0" encoding="UTF-8"?><svg id="Layer_1" xmlns="http://www.w3.org/2000/svg" viewBox="0 0 140 140"><defs><style>.cls-1{fill:#040405;}</style></defs><path class="cls-1" d="M61.02,89.43h0c-1.99,0-3.6,1.61-3.6,3.6s1.61,3.6,3.6,3.6,3.6-1.61,3.6-3.6h0c0-1.99-1.61-3.6-3.6-3.6Z"/><circle class="cls-1" cx="86.21" cy="92.96" r="3.6"/><path class="cls-1" d="M81.41,70.23h-24.25l-1.26-4.77-3.48-13.18c-.57-2.15-2.51-3.65-4.74-3.65h-5.72c-.07,0-.13,.06-.13,.13v4.66h5.85c.06,0,.11,.04,.13,.1l4.55,17.25-1.14,4.33c-1.07,4.05,1.35,8.21,5.4,9.28,.63,.17,1.29,.25,1.94,.25h31.27l-4.8-4.8h-26.5c-1.53,0-2.77-1.24-2.77-2.77,0-.24,.03-.48,.09-.71l.35-1.32h25.21c2.14,0,4.02-1.42,4.61-3.48l3.81-13.32h-4.8l-3.6,12Z"/><polygon class="cls-1" points="69.41 65.19 71.95 62.65 77.89 56.71 75.35 54.16 71.21 58.3 71.21 43.71 67.61 43.71 67.61 58.3 63.47 54.16 60.92 56.71 66.86 62.65 69.41 65.19"/><path class="cls-1" d="M69.94,.89C31.62,.89,.44,32.07,.44,70.39s31.18,69.5,69.5,69.5,69.5-31.18,69.5-69.5S108.26,.89,69.94,.89Zm0,138C32.17,138.89,1.44,108.16,1.44,70.39S32.17,1.89,69.94,1.89s68.5,30.73,68.5,68.5-30.73,68.5-68.5,68.5Z"/></svg>