<svg id="Componente_215_4" data-name="Componente 215 – 4" xmlns="http://www.w3.org/2000/svg" width="30.595" height="18.408" viewBox="0 0 30.595 18.408">
  <path id="Trazado_10000" data-name="Trazado 10000" d="M108.6,26.92h0l-.688-1.145a18.663,18.663,0,0,0-4.268-4.443,16.58,16.58,0,0,0-20.681,0,18.664,18.664,0,0,0-4.268,4.443L78,26.92h0l.688,1.146a18.347,18.347,0,0,0,4.143,4.341,16.61,16.61,0,0,0,20.933,0,18.357,18.357,0,0,0,4.143-4.341l.688-1.146h0ZM93.356,31.51h-.109a4.535,4.535,0,1,1,0-9.07h.109a4.535,4.535,0,0,1,0,9.07Z" transform="translate(-78.004 -17.712)" fill="#040506" opacity="0.25"/>
</svg>
