<?xml version="1.0" encoding="UTF-8"?><svg id="Layer_1" xmlns="http://www.w3.org/2000/svg" viewBox="0 0 140 140"><defs><style>.cls-1{fill:#040405;}</style></defs><path class="cls-1" d="M69.9,.44C31.58,.44,.4,31.62,.4,69.94s31.18,69.5,69.5,69.5,69.5-31.18,69.5-69.5S108.22,.44,69.9,.44Zm0,138C32.13,138.44,1.4,107.72,1.4,69.94S32.13,1.44,69.9,1.44s68.5,30.73,68.5,68.5-30.73,68.5-68.5,68.5Z"/><g><path d="M53.1,45.94v33.6l-7.2,.02v7.19c0,2,.78,3.69,2.33,5.09,1.56,1.4,3.44,2.1,5.67,2.1h32c2.22,0,4.11-.7,5.67-2.1,1.56-1.4,2.33-3.1,2.33-5.09V46.01l-40.8-.07Zm26.41,43.21h-25.93c-.82,0-1.5-.23-2.05-.69s-.83-1.03-.83-1.71v-2.4h28.81v4.79Zm9.59-2.41c0,1.33-1.08,2.4-2.4,2.4s-2.4-1.08-2.4-2.4c0-.03,0-.06,0-.1v-7.1h-26.4v-28.8h31.2v36Z"/><rect x="62.7" y="57.93" width="21.6" height="4.79"/><rect x="62.7" y="67.58" width="21.6" height="4.79"/></g></svg>