<svg id="Componente_424_40" data-name="Componente 424 – 40" xmlns="http://www.w3.org/2000/svg" width="24.941" height="15.006" viewBox="0 0 24.941 15.006">
  <path id="Trazado_10000" data-name="Trazado 10000" d="M102.945,25.218h0l-.561-.934a15.214,15.214,0,0,0-3.48-3.622,13.516,13.516,0,0,0-16.859,0,15.215,15.215,0,0,0-3.48,3.622L78,25.218h0l.561.934a14.957,14.957,0,0,0,3.377,3.539,13.541,13.541,0,0,0,17.065,0,14.965,14.965,0,0,0,3.377-3.539l.561-.934h0ZM90.519,28.96H90.43a3.7,3.7,0,1,1,0-7.394h.089a3.7,3.7,0,0,1,0,7.394Z" transform="translate(-78.004 -17.712)" fill="#040506" opacity="0.5"/>
</svg>
