<svg width="40" height="40" viewBox="0 0 40 40" fill="none" xmlns="http://www.w3.org/2000/svg">
<path fill-rule="evenodd" clip-rule="evenodd" d="M30.1761 8.49296H13.5564C13.0974 8.49296 12.7254 8.86501 12.7254 9.32394V25.9437C12.7254 26.4025 13.0974 26.7746 13.5564 26.7746H30.1761C30.635 26.7746 31.0071 26.4025 31.0071 25.9437V9.32394C31.0071 8.86501 30.635 8.49296 30.1761 8.49296ZM13.5564 6C11.7206 6 10.2324 7.48818 10.2324 9.32394V25.9437C10.2324 27.7795 11.7206 29.2676 13.5564 29.2676H30.1761C32.0119 29.2676 33.5 27.7795 33.5 25.9437V9.32394C33.5 7.48818 32.0119 6 30.1761 6H13.5564Z" fill="#F58634"/>
<path fill-rule="evenodd" clip-rule="evenodd" d="M5.24648 13.0634C5.93488 13.0634 6.49296 13.6214 6.49296 14.3098V30.9296C6.49296 32.077 7.42306 33.007 8.57042 33.007H30.1761C30.8644 33.007 31.4225 33.5651 31.4225 34.2535C31.4225 34.9419 30.8644 35.5 30.1761 35.5H8.57042C6.04625 35.5 4 33.4538 4 30.9296V14.3098C4 13.6214 4.55807 13.0634 5.24648 13.0634Z" fill="#F58634"/>
<path fill-rule="evenodd" clip-rule="evenodd" d="M15.6338 17.6338C15.6338 16.9454 16.1919 16.3873 16.8803 16.3873H26.8521C27.5405 16.3873 28.0986 16.9454 28.0986 17.6338C28.0986 18.3222 27.5405 18.8803 26.8521 18.8803H16.8803C16.1919 18.8803 15.6338 18.3222 15.6338 17.6338Z" fill="#F58634"/>
<path fill-rule="evenodd" clip-rule="evenodd" d="M21.8666 23.8662C21.1782 23.8662 20.6201 23.3081 20.6201 22.6197V12.6478C20.6201 11.9594 21.1782 11.4014 21.8666 11.4014C22.555 11.4014 23.1131 11.9594 23.1131 12.6478V22.6197C23.1131 23.3081 22.555 23.8662 21.8666 23.8662Z" fill="#F58634"/>
</svg>
