<svg width="20" height="21" viewBox="0 0 20 21" fill="none" xmlns="http://www.w3.org/2000/svg">
<path d="M1.60039 0.199951C0.937649 0.199951 0.400391 0.737209 0.400391 1.39995C0.400391 2.06269 0.937649 2.59995 1.60039 2.59995H3.06346L3.43013 4.06664C3.43398 4.0836 3.43819 4.10042 3.44275 4.1171L5.07142 10.6318L4.00033 11.7029C2.48842 13.2148 3.55921 15.8 5.69739 15.8H16.0003C16.6631 15.8 17.2003 15.2627 17.2003 14.6C17.2003 13.9372 16.6631 13.4 16.0003 13.4L5.69739 13.3999L6.89739 12.2H14.8004C15.2549 12.2 15.6704 11.9431 15.8737 11.5366L19.4737 4.33661C19.6597 3.96462 19.6398 3.52285 19.4212 3.16907C19.2025 2.81529 18.8163 2.59995 18.4004 2.59995H5.53732L5.16456 1.10891C5.03101 0.574708 4.55103 0.199951 4.00039 0.199951H1.60039Z" fill="white"/>
<path d="M17.2004 18.7999C17.2004 19.7941 16.3945 20.6 15.4004 20.6C14.4063 20.6 13.6004 19.7941 13.6004 18.7999C13.6004 17.8058 14.4063 17 15.4004 17C16.3945 17 17.2004 17.8058 17.2004 18.7999Z" fill="white"/>
<path d="M5.80039 20.6C6.7945 20.6 7.60039 19.7941 7.60039 18.7999C7.60039 17.8058 6.7945 17 5.80039 17C4.80628 17 4.00039 17.8058 4.00039 18.7999C4.00039 19.7941 4.80628 20.6 5.80039 20.6Z" fill="white"/>
</svg>
