<svg width="18" height="21" viewBox="0 0 18 21" fill="none" xmlns="http://www.w3.org/2000/svg">
<path fill-rule="evenodd" clip-rule="evenodd" d="M8.99961 0.900391C6.34864 0.900391 4.19961 3.04942 4.19961 5.70039V6.90039H2.99961C2.38816 6.90039 1.87448 7.36015 1.80695 7.96787L0.606955 18.7679C0.569261 19.1071 0.67782 19.4464 0.905462 19.7007C1.1331 19.955 1.45828 20.1004 1.79962 20.1004H16.1996C16.5409 20.1004 16.8661 19.955 17.0938 19.7007C17.3214 19.4464 17.43 19.1071 17.3923 18.7679L16.1923 7.96787C16.1248 7.36015 15.6111 6.90039 14.9996 6.90039H13.7996V5.70039C13.7996 3.04942 11.6506 0.900391 8.99961 0.900391ZM11.3996 6.90039V5.70039C11.3996 4.37491 10.3251 3.30039 8.99961 3.30039C7.67413 3.30039 6.59961 4.37491 6.59961 5.70039V6.90039H11.3996ZM4.19961 10.5004C4.19961 9.83765 4.73687 9.30039 5.39961 9.30039C6.06235 9.30039 6.59961 9.83765 6.59961 10.5004C6.59961 11.1631 6.06235 11.7004 5.39961 11.7004C4.73687 11.7004 4.19961 11.1631 4.19961 10.5004ZM12.5996 9.30039C11.9369 9.30039 11.3996 9.83765 11.3996 10.5004C11.3996 11.1631 11.9369 11.7004 12.5996 11.7004C13.2624 11.7004 13.7996 11.1631 13.7996 10.5004C13.7996 9.83765 13.2624 9.30039 12.5996 9.30039Z" fill="#F58634"/>
</svg>
