<svg width="20" height="21" viewBox="0 0 20 21" fill="none" xmlns="http://www.w3.org/2000/svg">
<path fill-rule="evenodd" clip-rule="evenodd" d="M7.60037 3.2999C4.94941 3.2999 2.80038 5.44892 2.80038 8.09988C2.80038 10.7508 4.94941 12.8999 7.60037 12.8999C10.2513 12.8999 12.4004 10.7508 12.4004 8.09988C12.4004 5.44892 10.2513 3.2999 7.60037 3.2999ZM0.400391 8.09988C0.400391 4.12344 3.62393 0.899902 7.60037 0.899902C11.5768 0.899902 14.8003 4.12344 14.8003 8.09988C14.8003 9.65487 14.3074 11.0947 13.4692 12.2717L19.2489 18.0513C19.7175 18.52 19.7175 19.2797 19.2489 19.7484C18.7802 20.217 18.0204 20.217 17.5518 19.7484L11.7722 13.9688C10.5952 14.8069 9.15536 15.2999 7.60037 15.2999C3.62393 15.2999 0.400391 12.0763 0.400391 8.09988Z" fill="#F58634"/>
</svg>
