<svg width="57" height="56" viewBox="0 0 57 56" fill="none" xmlns="http://www.w3.org/2000/svg">
<path d="M28.5016 32.8996C27.5324 32.8996 26.5851 32.6122 25.7793 32.0738C24.9735 31.5354 24.3454 30.7701 23.9746 29.8748C23.6037 28.9794 23.5066 27.9942 23.6957 27.0437C23.8848 26.0932 24.3515 25.2201 25.0367 24.5348C25.722 23.8495 26.5951 23.3828 27.5456 23.1938C28.4961 23.0047 29.4814 23.1017 30.3767 23.4726C31.2721 23.8435 32.0373 24.4715 32.5758 25.2773C33.1142 26.0831 33.4016 27.0305 33.4016 27.9996C33.374 29.2905 32.8489 30.5209 31.9359 31.4339C31.0229 32.347 29.7925 32.872 28.5016 32.8996Z" fill="#F58634"/>
<path fill-rule="evenodd" clip-rule="evenodd" d="M34.4481 16.1003H22.5481C21.6576 16.1856 20.778 16.3614 19.9232 16.6252C19.2516 16.8008 18.6444 17.1653 18.1735 17.6755C17.8099 18.063 17.522 18.5151 17.3245 19.0084C17.262 19.1409 17.1966 19.2796 17.1232 19.4252C17.0959 19.5065 17.0664 19.5918 17.0311 19.6834C16.7331 20.4363 16.5861 21.2404 16.5984 22.0501V33.9501C16.6836 34.8406 16.8595 35.7201 17.1232 36.5749C17.2987 37.2465 17.663 37.8537 18.1729 38.3246C18.5605 38.6882 19.0125 38.9761 19.5058 39.1736C19.6383 39.2362 19.7765 39.3016 19.9227 39.3749C20.004 39.4022 20.0893 39.4318 20.1808 39.467C20.9337 39.7652 21.7378 39.9124 22.5475 39.9003H34.4481C35.3386 39.8151 36.2181 39.6392 37.0729 39.3755C37.7445 39.2 38.3517 38.8357 38.8227 38.3258C39.1862 37.9382 39.4741 37.4862 39.6716 36.9929C39.7342 36.8604 39.7996 36.7222 39.8729 36.576C39.9002 36.4947 39.9298 36.4094 39.9651 36.3179C40.2632 35.565 40.4104 34.7609 40.3984 33.9512V22.0501C40.3131 21.1595 40.1373 20.28 39.8735 19.4252C39.698 18.7536 39.3338 18.1464 38.8238 17.6755C38.4363 17.3119 37.9842 17.024 37.4909 16.8265C37.3584 16.7639 37.2196 16.6986 37.0741 16.6252C36.9928 16.5979 36.9075 16.5683 36.8159 16.5331C36.0627 16.2349 35.2581 16.0879 34.4481 16.1003ZM28.4984 20.4755C27.0101 20.4755 25.5552 20.9168 24.3178 21.7436C23.0803 22.5705 22.1158 23.7457 21.5463 25.1207C20.9768 26.4957 20.8277 28.0087 21.1181 29.4684C21.4084 30.928 22.1251 32.2688 23.1775 33.3212C24.2299 34.3736 25.5707 35.0903 27.0303 35.3806C28.49 35.671 30.003 35.5219 31.378 34.9524C32.753 34.3829 33.9282 33.4184 34.7551 32.1809C35.5819 30.9435 36.0232 29.4886 36.0232 28.0003C36.0306 27.0101 35.8411 26.0283 35.4655 25.1119C35.09 24.1956 34.536 23.3632 33.8358 22.6629C33.1355 21.9627 32.3031 21.4087 31.3868 21.0332C30.4704 20.6576 29.4886 20.4681 28.4984 20.4755ZM37.9481 20.3003C37.9481 20.6464 37.8455 20.9847 37.6532 21.2724C37.4609 21.5602 37.1877 21.7844 36.868 21.9169C36.5482 22.0493 36.1964 22.0839 35.857 22.0164C35.5176 21.9489 35.2058 21.7823 34.9611 21.5376C34.7164 21.2929 34.5498 20.9811 34.4823 20.6417C34.4148 20.3023 34.4494 19.9505 34.5818 19.6308C34.7143 19.311 34.9385 19.0378 35.2263 18.8455C35.514 18.6532 35.8523 18.5506 36.1984 18.5506C36.6624 18.5506 37.1075 18.735 37.4356 19.0631C37.7637 19.3912 37.9481 19.8363 37.9481 20.3003Z" fill="#F58634"/>
<path fill-rule="evenodd" clip-rule="evenodd" d="M0.5 28C0.5 22.4621 2.14217 17.0486 5.21885 12.444C8.29553 7.83947 12.6685 4.25064 17.7849 2.13139C22.9012 0.0121319 28.5311 -0.542361 33.9625 0.538025C39.394 1.61841 44.3831 4.28515 48.299 8.20102C52.2149 12.1169 54.8816 17.106 55.962 22.5375C57.0424 27.9689 56.4879 33.5988 54.3686 38.7151C52.2494 43.8315 48.6605 48.2045 44.056 51.2812C39.4514 54.3578 34.0379 56 28.5 56C21.0739 56 13.952 53.05 8.70101 47.799C3.44999 42.548 0.5 35.4261 0.5 28ZM22.5497 13.4769H34.448C35.6404 13.5548 36.8173 13.7902 37.948 14.1769C38.9232 14.5936 39.813 15.1868 40.5729 15.9266C41.3323 16.6703 41.9282 17.5643 42.3226 18.5514C42.793 19.6579 43.0313 20.8491 43.0226 22.0514V33.948C42.9446 35.1404 42.7092 36.3173 42.3226 37.448C41.9058 38.4232 41.3127 39.3131 40.5729 40.0729C39.8291 40.8323 38.9351 41.4283 37.948 41.8226C36.8417 42.2938 35.6504 42.5328 34.448 42.5249H22.5497C21.3573 42.4469 20.1804 42.2115 19.0497 41.8249C18.0745 41.4081 17.1847 40.815 16.4249 40.0751C15.6654 39.3314 15.0695 38.4374 14.6751 37.4503C14.205 36.343 13.9673 35.1509 13.9768 33.948V22.0497C14.0548 20.8573 14.2902 19.6804 14.6768 18.5497C15.0936 17.5745 15.6868 16.6847 16.4266 15.9249C17.1703 15.1654 18.0643 14.5695 19.0514 14.1752C20.1575 13.7055 21.3481 13.4678 22.5497 13.4769Z" fill="#F58634"/>
</svg>
