<svg width="26" height="24" viewBox="0 0 26 24" fill="none" xmlns="http://www.w3.org/2000/svg">
<path d="M1.79995 0.799805C0.916296 0.799805 0.199951 1.51615 0.199951 2.39981V21.5998C0.199951 22.4835 0.916296 23.1998 1.79995 23.1998C2.68361 23.1998 3.39995 22.4835 3.39995 21.5998V2.39981C3.39995 1.51615 2.68361 0.799805 1.79995 0.799805Z" fill="#25292E"/>
<path d="M18.2686 15.6685C17.6437 16.2933 17.6437 17.3064 18.2686 17.9312C18.8934 18.556 19.9065 18.556 20.5313 17.9312L25.3313 13.1312C25.6314 12.8311 25.7999 12.4242 25.7999 11.9998C25.7999 11.5755 25.6314 11.1685 25.3313 10.8685L20.5313 6.06844C19.9065 5.4436 18.8934 5.4436 18.2686 6.06844C17.6437 6.69328 17.6437 7.70635 18.2686 8.33119L20.3372 10.3998L8.19995 10.3998C7.31629 10.3998 6.59995 11.1162 6.59995 11.9998C6.59995 12.8835 7.3163 13.5998 8.19995 13.5998H20.3372L18.2686 15.6685Z" fill="#25292E"/>
</svg>
