<svg width="32" height="32" viewBox="0 0 32 32" fill="none" xmlns="http://www.w3.org/2000/svg">
<path fill-rule="evenodd" clip-rule="evenodd" d="M30.3971 20.8079C30.3971 18.6555 29.5247 16.7052 28.1128 15.2943C28.0519 15.2335 27.9911 15.1749 27.9279 15.1164C28.8681 13.709 29.294 12.0549 29.2033 10.4271C29.1023 8.6077 28.3618 6.81816 26.9798 5.43611C25.4886 3.94496 23.5233 3.19995 21.5594 3.19995C19.5953 3.19995 17.6301 3.94611 16.139 5.43611L15.4078 6.16734L14.6765 5.43611C13.1854 3.94496 11.2201 3.19995 9.25615 3.19995C7.29223 3.19995 5.32685 3.94611 3.83576 5.43611C2.34462 6.92725 1.59961 8.89257 1.59961 10.8565C1.59961 12.8206 2.34577 14.7858 3.83576 16.2769L12.1237 24.5648C12.3877 24.8288 12.8136 24.8288 13.0776 24.5648C13.3417 24.3008 13.3417 23.8738 13.0776 23.6097L6.4759 17.008L15.8864 7.5975L17.094 6.38873C18.3223 5.16046 19.942 4.54748 21.5605 4.54748C23.1802 4.54748 24.7998 5.1616 26.027 6.38873C27.1657 7.52747 27.7764 9.00139 27.8602 10.4994C27.9326 11.8126 27.6031 13.1419 26.8707 14.2817C25.6447 13.477 24.1766 13.0098 22.6017 13.0098C20.4494 13.0098 18.499 13.8823 17.0882 15.2942C15.6774 16.705 14.8038 18.6543 14.8038 20.8077C14.8038 22.9601 15.6763 24.9104 17.0882 26.3213C18.499 27.7321 20.4494 28.6056 22.6017 28.6056C24.7541 28.6056 26.7044 27.7332 28.1153 26.3213C29.5261 24.9105 30.3996 22.96 30.3996 20.8077L30.3971 20.8079ZM23.2744 20.1329H26.3979C26.7709 20.1329 27.0729 20.4348 27.0729 20.8079C27.0729 21.1809 26.771 21.4828 26.3979 21.4828H23.2744V24.6064C23.2744 24.9794 22.9725 25.2813 22.5994 25.2813C22.2263 25.2813 21.9244 24.9795 21.9244 24.6064V21.4828H18.8009C18.4278 21.4828 18.1259 21.1809 18.1259 20.8079C18.1259 20.4348 18.4278 20.1329 18.8009 20.1329H21.9244V17.0082C21.9244 16.6351 22.2263 16.3332 22.5994 16.3332C22.9724 16.3332 23.2744 16.6351 23.2744 17.0082V20.1329Z" fill="#F58634"/>
</svg>
