<?xml version="1.0" encoding="UTF-8"?><svg id="Layer_1" xmlns="http://www.w3.org/2000/svg" xmlns:xlink="http://www.w3.org/1999/xlink" viewBox="0 0 101 101"><defs><style>.cls-1{fill:#0a1b3d;}.cls-2{fill:#fff;}.cls-3{fill:#bfb3d9;}.cls-4{clip-path:url(#clippath-1);}.cls-5{fill:#eb7568;}.cls-6{fill:#e3032c;}.cls-7{clip-path:url(#clippath);}.cls-8{fill:#f3aea7;}.cls-9{fill:#1d1d1b;}</style><clipPath id="clippath"><circle class="cls-3" cx="50.5" cy="50.63" r="50"/></clipPath><clipPath id="clippath-1"><rect class="cls-8" x="42.16" y="56.21" width="14.47" height="10"/></clipPath></defs><circle class="cls-3" cx="50.5" cy="50.63" r="50"/><g class="cls-7"><g><g><path class="cls-9" d="M53.5,21.72l-8.22-4.59s-5.52-1.84-10.54,9.27c-3.69,8.17-7.41,16.96-9.12,21.04-.46,1.11,.35,2.33,1.55,2.33h1.6s0,2.67-1.33,4.95c-.19,.33-.4,.68-.62,1.05-1.24,2.06,.24,4.68,2.65,4.68h40.2c2.36,0,3.85-2.54,2.69-4.6l-1.49-2.66-.83-4.76s3.62-.83,2.35-4.76c-.76-2.36-3.38-5.69-5.37-7.98-1.53-1.77-2.35-4.06-2.3-6.4h0c.06-3.33-2.54-6.1-5.87-6.24l-.78-.03c-1.6-.07-3.16-.51-4.56-1.29Z"/><g><rect class="cls-8" x="42.16" y="56.21" width="14.47" height="10"/><g class="cls-4"><polygon class="cls-5" points="41.11 59.01 48.59 67.57 57.79 66.64 57.2 58.08 41.11 59.01"/></g></g><path class="cls-1" d="M84.31,83.89c-1.86-5.58-6.77-9.64-12.7-10.49l-11.64-1.67c-1.22-.18-2.13-1.22-2.13-2.45v-.05c0-.4,.32-.72,.72-.72h0c.47,0,.85-.38,.85-.85v-2.1c0-.47-.38-.85-.85-.85h-18.89c-.47,0-.85,.38-.85,.85v2.1c0,.47,.38,.85,.85,.85h.35c.4,0,.72,.32,.72,.72h0c0,1.23-.91,2.28-2.13,2.45l-11.99,1.72c-5.92,.85-10.84,4.92-12.7,10.49l-7.03,21.11v2.92H94.1l-9.8-24.04Z"/><path class="cls-8" d="M55.53,28.83s-2.86-2.38-5.71-.29c-2.86,2.1-3.67,11.57-9.24,15.05s-4.71,3.29-4.71,3.29c0,0,3.03,16.25,13.03,16.53,11.01,.31,13.87-15.72,13.87-15.86s-4.27-4.09-6.25-8.52c-1.98-4.43-.98-10.19-.98-10.19Z"/></g><path class="cls-6" d="M50.46,54.35c-.59,0-1.05,.26-1.19,.35-.13-.08-.6-.35-1.19-.35-.7,0-2.81,1.76-2.81,1.76,.98,1.31,3.64,1.27,4,1.25,.36,.01,3.02,.06,4-1.25,0,0-2.11-1.76-2.81-1.76Z"/><path class="cls-6" d="M31.17,34.58s3.64-3.22,17.03-5.01c6.93-.93,16.48-1.67,16.48-1.67,0,0,1.67-6.34,.78-8.18-1.37-2.84-8.23-4.58-11.27-4.91-9.69-1.04-27.77,8.72-26.22,17.1,.18,.95,3.2,2.67,3.2,2.67Z"/><path class="cls-2" d="M65.37,38.71h-6.69c-2.52,0-5.02,.5-7.35,1.47l-.53,.22c-.1,.04-.21,.07-.33,.07h-2.39c-.11,0-.22-.02-.33-.07l-.53-.22c-2.33-.97-4.83-1.47-7.35-1.47h-6.69c-.46,0-.84,.37-.84,.82,0,1.41,.73,4.49,6.08,8.31,1,.72,3.51,1.05,4.92,.35,2.68-1.34,4.22-4.57,4.57-5.62,.29-.87,2.43-.87,2.72,0,.35,1.05,1.88,4.28,4.57,5.62,1.41,.7,3.92,.37,4.92-.35,5.35-3.82,6.08-6.91,6.08-8.31,0-.46-.38-.82-.84-.82Z"/><path class="cls-1" d="M63.57,41.56c.09-.58-.23-1.15-.78-1.37s-1.49-.42-3.02-.42c-3.51,0-6.67,.7-6.67,.7,0,0-.7,.35-1.05,1.05s-.35,1.85,1.23,3.91c.86,1.13,2.11,1.61,3.07,1.83s1.93,.12,2.82-.24c1.16-.46,2.75-1.44,3.77-3.42,.38-.74,.55-1.5,.63-2.03Z"/><path class="cls-1" d="M35.01,41.56c-.09-.58,.23-1.15,.78-1.37s1.49-.42,3.02-.42c3.51,0,6.67,.7,6.67,.7,0,0,.7,.35,1.05,1.05s.35,1.85-1.23,3.91c-.86,1.13-2.11,1.61-3.07,1.83s-1.93,.12-2.82-.24c-1.16-.46-2.75-1.44-3.77-3.42-.38-.74-.55-1.5-.63-2.03Z"/><polygon class="cls-6" points="39.17 20.18 35.97 16.01 38.18 15.38 40.24 19.66 39.17 20.18"/></g></g></svg>