<?xml version="1.0" encoding="UTF-8"?><svg id="Layer_1" xmlns="http://www.w3.org/2000/svg" xmlns:xlink="http://www.w3.org/1999/xlink" viewBox="0 0 101 101"><defs><style>.cls-1{clip-path:url(#clippath-2);}.cls-2{stroke-width:.75px;}.cls-2,.cls-3,.cls-4{fill:none;stroke:#eeeded;stroke-miterlimit:10;}.cls-5{clip-path:url(#clippath-1);}.cls-6{clip-path:url(#clippath);}.cls-7{fill:#2673f0;}.cls-4{stroke-dasharray:0 0 4.89 4.89;}</style><clipPath id="clippath"><circle id="SVGID-2" class="cls-7" cx="50.5" cy="50.63" r="50"/></clipPath><clipPath id="clippath-1"><path class="cls-3" d="M67.12,38.28h3.87L42.87,14.45l-11.25,9.53v-5.07h-9.08v12.61l-7.79,6.76h3.87v30.28l19.83,.15v-15.06h9.09v15.34h19.72l-.14-20.06v-10.66Zm-29.53,7.71h-11.36v-7.67h11.36v7.67Zm21.59,0h-11.36v-7.67h11.36v7.67Z"/></clipPath><clipPath id="clippath-2"><path class="cls-3" d="M82.59,64.44l-.98-4.62-3.8-.27c-.33-.59-.71-1.15-1.13-1.67l1.11-3.64-3.96-2.57-2.82,2.44c-.7-.21-1.43-.35-2.17-.41l-1.73-3.25-4.62,.98-.26,3.67c-.65,.36-1.26,.79-1.82,1.26l-3.47-1.05-2.57,3.96,2.4,2.78c-.19,.68-.32,1.38-.38,2.1l-3.22,1.72,.98,4.62,3.69,.26c.36,.63,.77,1.21,1.22,1.75l-1.08,3.56,3.96,2.57,2.87-2.48c.62,.17,1.26,.29,1.91,.35l1.8,3.38,4.62-.98,.27-3.82c.57-.32,1.11-.69,1.61-1.1l3.73,1.13,2.57-3.96-2.52-2.91c.18-.65,.31-1.31,.38-1.99l3.41-1.82Zm-14.08,3.69c-1.64,.35-3.26-.7-3.61-2.34-.35-1.64,.7-3.26,2.34-3.61,1.64-.35,3.26,.7,3.61,2.34s-.7,3.26-2.34,3.61Z"/></clipPath></defs><circle id="SVGID" class="cls-7" cx="50.5" cy="50.63" r="50"/><g class="cls-6"><g><path class="cls-4" d="M39.64,.99l23.52,19.55c6.47,5.38,15.98,4.94,21.93-1.01l1.1-1.1"/><line class="cls-3" x1="87.91" y1="16.71" x2="89.68" y2="14.94"/></g><g><path class="cls-4" d="M64.68,102.54l-23.52-19.55c-6.47-5.38-15.98-4.94-21.93,1.01l-1.1,1.1"/><line class="cls-3" x1="16.4" y1="86.82" x2="14.64" y2="88.59"/></g><g><g class="cls-5"><line class="cls-2" x1="20.34" y1="21.94" x2="68.77" y2="64.05"/><line class="cls-2" x1="18.57" y1="24.87" x2="67" y2="66.97"/><line class="cls-2" x1="25.38" y1="17.32" x2="73.81" y2="59.43"/><line class="cls-2" x1="23.05" y1="19.59" x2="71.49" y2="61.7"/><line class="cls-2" x1="29.66" y1="12.09" x2="78.1" y2="54.2"/><line class="cls-2" x1="27.89" y1="15.01" x2="76.33" y2="57.12"/><line class="cls-2" x1="34.7" y1="7.47" x2="83.13" y2="49.58"/><line class="cls-2" x1="32.38" y1="9.74" x2="80.81" y2="51.84"/><line class="cls-2" x1="1.69" y1="41.65" x2="50.12" y2="83.76"/><line class="cls-2" x1="-.08" y1="44.57" x2="48.35" y2="86.68"/><line class="cls-2" x1="6.72" y1="37.03" x2="55.16" y2="79.14"/><line class="cls-2" x1="4.4" y1="39.3" x2="52.84" y2="81.41"/><line class="cls-2" x1="11.01" y1="31.8" x2="59.45" y2="73.91"/><line class="cls-2" x1="9.24" y1="34.72" x2="57.67" y2="76.83"/><line class="cls-2" x1="16.05" y1="27.18" x2="64.48" y2="69.29"/><line class="cls-2" x1="13.73" y1="29.44" x2="62.16" y2="71.55"/></g><path class="cls-3" d="M67.12,38.28h3.87L42.87,14.45l-11.25,9.53v-5.07h-9.08v12.61l-7.79,6.76h3.87v30.28l19.83,.15v-15.06h9.09v15.34h19.72l-.14-20.06v-10.66Zm-29.53,7.71h-11.36v-7.67h11.36v7.67Zm21.59,0h-11.36v-7.67h11.36v7.67Z"/></g><rect class="cls-7" x="49.24" y="46.84" width="36.91" height="36.91" rx="18.45" ry="18.45"/><g><g class="cls-1"><line class="cls-2" x1="50.34" y1="45.31" x2="89.12" y2="80.46"/><line class="cls-2" x1="48.84" y1="47.66" x2="87.63" y2="82.81"/><line class="cls-2" x1="54.52" y1="41.62" x2="93.31" y2="76.78"/><line class="cls-2" x1="52.59" y1="43.43" x2="91.38" y2="78.59"/><line class="cls-2" x1="58.11" y1="37.43" x2="96.9" y2="72.58"/><line class="cls-2" x1="56.61" y1="39.78" x2="95.4" y2="74.93"/><line class="cls-2" x1="62.29" y1="33.74" x2="101.08" y2="68.9"/><line class="cls-2" x1="60.36" y1="35.55" x2="99.15" y2="70.71"/><line class="cls-2" x1="34.8" y1="61.06" x2="73.58" y2="96.22"/><line class="cls-2" x1="33.3" y1="63.42" x2="72.09" y2="98.57"/><line class="cls-2" x1="38.98" y1="57.38" x2="77.77" y2="92.53"/><line class="cls-2" x1="37.05" y1="59.19" x2="75.84" y2="94.34"/><line class="cls-2" x1="42.57" y1="53.18" x2="81.35" y2="88.34"/><line class="cls-2" x1="41.07" y1="55.54" x2="79.86" y2="90.69"/><line class="cls-2" x1="46.75" y1="49.5" x2="85.54" y2="84.65"/><line class="cls-2" x1="44.82" y1="51.31" x2="83.61" y2="86.46"/></g><path class="cls-3" d="M82.59,64.44l-.98-4.62-3.8-.27c-.33-.59-.71-1.15-1.13-1.67l1.11-3.64-3.96-2.57-2.82,2.44c-.7-.21-1.43-.35-2.17-.41l-1.73-3.25-4.62,.98-.26,3.67c-.65,.36-1.26,.79-1.82,1.26l-3.47-1.05-2.57,3.96,2.4,2.78c-.19,.68-.32,1.38-.38,2.1l-3.22,1.72,.98,4.62,3.69,.26c.36,.63,.77,1.21,1.22,1.75l-1.08,3.56,3.96,2.57,2.87-2.48c.62,.17,1.26,.29,1.91,.35l1.8,3.38,4.62-.98,.27-3.82c.57-.32,1.11-.69,1.61-1.1l3.73,1.13,2.57-3.96-2.52-2.91c.18-.65,.31-1.31,.38-1.99l3.41-1.82Zm-14.08,3.69c-1.64,.35-3.26-.7-3.61-2.34-.35-1.64,.7-3.26,2.34-3.61,1.64-.35,3.26,.7,3.61,2.34s-.7,3.26-2.34,3.61Z"/></g></g></svg>