<?xml version="1.0" encoding="UTF-8"?><svg id="Layer_1" xmlns="http://www.w3.org/2000/svg" xmlns:xlink="http://www.w3.org/1999/xlink" viewBox="0 0 101 101"><defs><style>.cls-1{fill:#fff;}.cls-2{fill:#246ef0;}.cls-3{fill:#5c3d31;}.cls-4{fill:#8abaff;}.cls-5{clip-path:url(#clippath);}.cls-6{fill:#f1906a;}</style><clipPath id="clippath"><circle class="cls-4" cx="50.5" cy="50.63" r="50"/></clipPath></defs><circle class="cls-4" cx="50.5" cy="50.63" r="50"/><g class="cls-5"><path class="cls-6" d="M37.49,25.04s-1.02-6.4,3.88-7.48c4.31-.95,8.54-1.63,12.25,2.53,3.71,4.16,1.39,8.86,.74,10.62s-2.65,3.27-2.54,4.28,.29,1.83,.29,1.83l-7.63,.85-.23-1.19c-.07-.37-.44-.62-.81-.54-1.13,.24-3.39,.71-4.36,.91-.3,.06-.61,.06-.9-.01h0c-.94-.22-1.62-1.05-1.65-2.02l-.1-3.81c0-.18-.12-.35-.29-.41l-.82-.32c-.3-.12-.41-.47-.24-.74l2.41-4.5Z"/><path d="M88.94,62.88c-3.77-4.01-9.02-9.56-13.41-14.05-4-4.09-6.54-5.68-8.07-6.26-.33-.17-.73-.27-1.22-.3-.07,0-.14,0-.2,0h-.01c-3.29-.03-9.26-.18-10.2-.71-1.58-.89-2.99-3.16-3.71-4.74l-7.63,.85s.11,2.42-.92,3.77c-.53,.7-2.73,1.82-4.85,3.02-2.69,1.53-4.12,4.58-3.61,7.62l.88,5.24,25.83,14.93,12.9,7.32-.59-4.71,12.9-4.35c3.24-1.09,4.27-5.16,1.93-7.65Zm-15.8,4.21l-.99-7.83,7.23,4.29-6.25,3.54Z"/><path d="M64.9,82.21h-17.61l-1.09-4.41-2.56,.29c-1.21,.14-2.42-.29-3.28-1.16l-12.78-12.99,3.74-.96,33.58,19.24Z"/><path class="cls-1" d="M101.55,97.45l-1.69,2.69c-.54,.85-1.66,1.12-2.53,.6l-1.34-.8-5.24-2.91-12.59-7.22-15.79-9.05L12.19,52.01l-7.21-7.65c-.39-.41,0-1.08,.55-.94l10.73,2.66,58.33,33.52,.16,.09,19.59,11.26,5.38,3.13,1.27,.83c.85,.55,1.1,1.69,.56,2.55Z"/><path class="cls-6" d="M60.02,74.15l2.89-1.26,5.1,2.89-2.41,4.43-2.71,.85-4.21-2.41,1.52-1.18c.47-.36,.82-.85,1.01-1.41l.12-.34c.1-.29-.15-.58-.45-.52l-.87,.21c-.66,.16-1.34,.13-1.99-.06l-.36-.11,2.35-1.08Z"/><path class="cls-6" d="M31.32,62.97l-.21-.46c-.47-1.03-1.34-1.82-2.41-2.21l-1.36-.49-.07-.44,1.29-1.36-.79-.56-1.45,1.32-.23,.88-.43-1.97,1.18-.84-.41-.92-2.03,1.32,.18,1.61-.66-.37-1.06-2.32,.84-1.65-1.04-.41-.93,2.07,.5,1.67-1.79-1.09-1.38-1.78-1.18,.13,1.84,3.2,2.53,1.4,5.32,4.23,3.74-.96Z"/><path class="cls-3" d="M39.62,18.31c2.7-1.68,4.75-.77,4.75-.77,0,0,.45,1.09-.82,1.43-1.27,.33-1.62,1.71-1.17,2.45s2.69,2.37,3.27,2.71,1.52-.96,2.68-1.25c1.16-.29,2.14,.65,2.49,1.56,.36,.91,0,1.87-1.21,2.49s-2.18,.94-2.15,1.16c0,.06,.06,.41,.12,.9,.35,2.51,1.81,4.77,4.06,6.3h0l2.2-3.24s3.55-4.5,3.79-8.14c.24-3.65-3.3-6.81-4.8-7.91-1.5-1.1-6.92-1.7-9.56-1.28-2.63,.42-6.54,1.81-7.64,2.89-1.11,1.08-.95,1.52-.88,2.14s.99,1.14,.76,2.02c-.12,.46-.18,.97-.22,1.39-.05,.52,.24,1.01,.71,1.23l1.47,.67s-.32-5.2,2.13-6.73Z"/><polyline class="cls-2" points="65.39 102.88 52.2 102.88 47.28 82.21 64.9 82.21 62.37 80.77 78.17 89.82 82.57 102.88 66.77 102.88"/></g></svg>