<?xml version="1.0" encoding="UTF-8"?><svg id="Layer_1" xmlns="http://www.w3.org/2000/svg" xmlns:xlink="http://www.w3.org/1999/xlink" viewBox="0 0 101 101"><defs><style>.cls-1{fill:#0a1b3d;}.cls-2{fill:#103775;}.cls-3{fill:#f9b624;}.cls-4{fill:#d7e9ff;}.cls-5{fill:#8cbbff;}.cls-6{fill:#ef8460;}.cls-7{fill:#e3032c;}.cls-8{fill:#5c3d31;}.cls-9{clip-path:url(#clippath);}.cls-10{fill:#2673f0;}.cls-11{fill:#f1906a;}.cls-12{fill:#c3d7e7;}.cls-13{fill:#ffe2ac;}.cls-14{fill:#fcce72;}</style><clipPath id="clippath"><circle class="cls-13" cx="50.5" cy="50.63" r="50"/></clipPath></defs><circle class="cls-13" cx="50.5" cy="50.63" r="50"/><g class="cls-9"><path class="cls-3" d="M87.4,66.7c-.88-3.15-3.98-5.82-7-7.76s-6.04-3.24-9.33-4.19l-20.59-5.93v-.05l-.08,.02-.08-.02v.05l-20.59,5.93c-3.29,.95-6.45,2.33-9.33,4.19s-6.12,4.61-7,7.76c-.95,3.4-2.47,12.05-2.47,12.05l-2.11,14.46-.9,8.14,84.07,1.21-.9-9.34s-2.72-23.12-3.67-26.52Z"/><path class="cls-11" d="M58.96,20.6c-5.89,0-8.42,1.81-8.42,1.81l-.14,.35v-.35s-2.52-1.81-8.42-1.81-5.05,11.45-5.05,11.45l1.12,10.25s2.66,11.41,11.59,12.58h0l.24,.03c.17,.02,.34,.03,.52,.05h.14c9.54-.6,12.34-12.66,12.34-12.66l1.12-10.25s.84-11.45-5.05-11.45Z"/><path class="cls-7" d="M49.55,35c-.19-.94-.87-1.71-1.79-1.99-.78-.23-1.91-.43-3.49-.43-.68,0-1.26,.03-1.76,.07h-.09c-.4,.05-.74,.1-1.03,.16l-3.09,.44-1.41-1.21,.2,1.21,1.21,1.81,.87,.29c0,.1,0,.2,0,.3,.03,.6,.15,1.86,.59,2.96,.25,.62,1.02,2.67,4.82,2.71,3.13-.04,4.19-2.09,4.44-2.71,.44-1.1,.56-2.36,.59-2.96,.01-.22,0-.44-.05-.65Z"/><path class="cls-13" d="M48.85,35.21c-.16-.84-.76-1.53-1.55-1.77-.67-.21-1.65-.38-3.01-.38-1.17,0-2.01,.1-2.62,.23-.88,.2-1.57,.91-1.74,1.83l-.02,.1c-.04,.19-.05,.39-.04,.58,.03,.54,.13,1.66,.51,2.64,.21,.55,.88,2.38,4.17,2.42,2.71-.04,3.62-1.87,3.84-2.42,.38-.98,.48-2.1,.51-2.64,.01-.2,0-.39-.04-.58h0Z"/><path class="cls-7" d="M51.53,35c.19-.94,.86-1.71,1.77-1.99,.77-.23,1.88-.43,3.44-.43,.67,0,1.24,.03,1.74,.07h.09c.39,.05,.73,.1,1.02,.16l3.05,.44,1.39-1.21-.2,1.21-1.19,1.81-.86,.29c0,.1,0,.2,0,.3-.03,.6-.15,1.86-.58,2.96-.24,.62-1.01,2.67-4.76,2.71-3.09-.04-4.14-2.09-4.38-2.71-.43-1.1-.55-2.36-.58-2.96-.01-.22,0-.44,.05-.65Z"/><path class="cls-13" d="M52.22,35.21c.16-.84,.75-1.53,1.53-1.77,.67-.21,1.63-.38,2.98-.38,1.15,0,1.98,.1,2.58,.23,.87,.2,1.55,.91,1.72,1.83l.02,.1c.04,.19,.05,.39,.04,.58-.03,.54-.13,1.66-.5,2.64-.21,.55-.87,2.38-4.12,2.42-2.67-.04-3.58-1.87-3.79-2.42-.38-.98-.48-2.1-.5-2.64-.01-.2,0-.39,.04-.58h0Z"/><path class="cls-7" d="M52.22,34.1c-.43-.35-.97-.54-1.52-.54s-1.09,.19-1.52,.54l-.08,.06,.36,.6c.29-.29,.68-.46,1.08-.49h.32c.41,.03,.79,.21,1.08,.49l.36-.6-.08-.06Z"/><path class="cls-5" d="M35.02,57.66v-2.64s10.85,2.04,13.26,3.85c.39,.29,.74,.59,1.06,.87,1.45,1.32,2.26,3.2,2.26,5.15h0l-16.57-7.23Z"/><path class="cls-4" d="M68.77,59.17v-4.15s-10.85,2.04-13.26,3.85c-.39,.29-.74,.59-1.06,.87-1.45,1.32-2.26,3.2-2.26,5.15h0l16.57-5.73Z"/><path class="cls-12" d="M32.31,56.76l-2.43,3.3,21.41,5.44h0c0-1.97-.99-3.81-2.64-4.87-.29-.19-.62-.37-.97-.55-6.03-3.01-15.37-3.31-15.37-3.31Z"/><path class="cls-2" d="M29,60.07s5.73-.3,11.75,.9c4.3,.86,9.04,3.62,9.04,3.62l.14,33.6-18.22-4.98-2.71-33.15Z"/><path class="cls-5" d="M71.56,59.99l.06-2.64s-12.69,1.77-15.54,3.52c-.46,.28-.88,.57-1.25,.85-1.72,1.28-2.7,3.14-2.74,5.1h0l19.47-6.82Z"/><path class="cls-10" d="M73.29,59.47s-2.41,0-11.77,1.51c-4.33,.7-9.02,3.62-9.02,3.62l.27,33.6,17.79-4.98,2.73-33.75Z"/><path class="cls-8" d="M36.87,32.43l.51-2.22c.63-2.89,1.73-5.96,4.01-8.07l1.01-.94s3.47,2.12,7.94,1.96c1.97-.07,3.96-.57,5.57-1.11,2.35-.78,4.93,.42,5.74,2.75,.19,.53,.35,1.11,.49,1.73,.83,3.7,1.43,5.9,1.43,5.9l1.7-1.14,.72-4.14c.19-1.52,.98-10.63-4.24-12.89-.95-.41-2.13-.68-3.13-.69-1.31-.01-2.59-.42-3.72-1.09l-3-1.76c-2.84-1.66-6.39-1.81-9.23-.15-.17,.1-.33,.2-.49,.3h0c-1.85,1.23-3.36,2.93-4.35,4.91l-.02,.05c-.18,.35-.39,.69-.62,1.01h0c-2.72,1.54-4.27,4.54-3.94,7.64h0c.24,2.21,.71,4.39,1.42,6.5l.15,.44,2.04,.99Z"/><path class="cls-8" d="M55.67,44.39c-1.1-.28-2.37-.8-2.37-.8,0,0-.41-.22-1.43,.65-.59,.5-1.04,.66-1.31,.71-.03,0-.06,0-.08,.01-.03,0-.05,0-.08-.01-.27-.05-.73-.21-1.31-.71-1.01-.86-1.43-.65-1.43-.65,0,0-1.26,.52-2.37,.8-2.27,.57-2.84,0-2.84,0,.57,6.25,7.69,3.13,8.03,2.72v0c.34,.4,7.47,3.53,8.03-2.72,0,0-.57,.57-2.84,0Z"/><path class="cls-6" d="M24.02,84.63l2.41-2.41s.6-.9,.6-2.41,.3-4.52,.3-4.52l2.71-4.37v2.84l4.83-6.61,5.12-1.21s2.42-.3,2.57,0,.15,1.51-2.26,2.11c-2.41,.6-3.31,.9-3.31,.9l-2.41,3.31,2.71-2.71,5.73-.6s.9,0,.9,.6-.9,1.51-1.51,1.51-3.62,.6-3.62,.6l-1.03,1.66,4.95-.15s1.21-.03,1.21,.44-.65,1.67-1.51,1.67c-1.21,0-3.62,.3-3.62,.3l-1.21,2.11,2.11-.9h2.71s1.21,.3,.3,1.21c-.9,.9-3.01,1.21-3.01,1.21l-3.01,2.41s-.3,2.41-1.51,3.62c-.6,.6-4.91,4.97-4.91,4.97,0,0-5.63-1.36-6.24-5.57Z"/><path class="cls-14" d="M86.86,102.17l-9.02-10.83s.65,2.04-1.05,3.99c-2.11,2.41-5.18,3.01-5.18,3.01l2.19,3.83h13.07Z"/><path class="cls-6" d="M77.84,92.77l-2.41-2.41s-.6-.9-.6-2.41-.3-4.52-.3-4.52l-2.84-3.81-.17,2.13-4.52-6.46-5.12-1.21s-2.42-.3-2.57,0-.15,1.51,2.26,2.11c2.41,.6,3.31,.9,3.31,.9l2.41,3.31-2.71-2.71-5.73-.6s-.9,0-.9,.6,.9,1.51,1.51,1.51,3.62,.6,3.62,.6l1.03,1.66-4.95-.15s-1.21-.03-1.21,.44,.65,1.67,1.51,1.67c1.21,0,3.62,.3,3.62,.3l1.21,2.11-2.11-.9h-2.71s-1.21,.3-.3,1.21c.9,.9,3.01,1.21,3.01,1.21l3.01,2.41s.3,2.41,1.51,3.62c.6,.6,4.91,4.97,4.91,4.97,0,0,5.63-1.36,6.24-5.57Z"/><path class="cls-3" d="M6.75,99.49l17.27-16.29s-.65,2.04,1.05,3.99c2.11,2.41,6.33,3.01,6.33,3.01l-7.61,9.29H6.75Z"/><path class="cls-11" d="M36.93,32.05s-1.68-2.11-2.52-.3c-.84,1.81,.84,7.83,1.68,9.34,.84,1.51,1.96,1.21,1.96,1.21l-1.12-10.25Z"/><path class="cls-11" d="M63.61,32.05s1.68-2.11,2.52-.3-.84,7.83-1.68,9.34-1.96,1.21-1.96,1.21l1.12-10.25Z"/><rect class="cls-1" x="49.22" y="64.59" width="3.55" height="33.6"/></g></svg>