<?xml version="1.0" encoding="UTF-8"?><svg id="Layer_1" xmlns="http://www.w3.org/2000/svg" xmlns:xlink="http://www.w3.org/1999/xlink" viewBox="0 0 101 101"><defs><style>.cls-1{fill:#556268;}.cls-2{fill:none;stroke:#556268;stroke-miterlimit:10;}.cls-3{fill:#eadfda;}.cls-4{fill:#f9b624;}.cls-5{fill:#bfb3d9;}.cls-6{fill:#6c7c82;}.cls-7{fill:#e3032c;}.cls-8{clip-path:url(#clippath);}</style><clipPath id="clippath"><circle class="cls-5" cx="50.5" cy="50.63" r="50"/></clipPath></defs><circle class="cls-5" cx="50.5" cy="50.63" r="50"/><g class="cls-8"><rect class="cls-1" x="40.51" y="70.18" width="19.98" height="2.41"/><rect class="cls-1" x="40.51" y="65.91" width="19.98" height="2.41"/><rect class="cls-6" x="40.51" y="68.04" width="19.98" height="2.41"/><path class="cls-6" d="M30.68,72.6h39.63c6.27,0,11.37,5.09,11.37,11.37v23.2H19.32v-23.2c0-6.27,5.09-11.37,11.37-11.37Z"/><rect class="cls-2" x="32.37" y="83.2" width="36.41" height="24.28"/><rect class="cls-1" x="24.17" y="44.06" width="3.03" height="9.71"/><rect class="cls-1" x="73.94" y="44.06" width="3.03" height="9.71"/><rect class="cls-6" x="26.77" y="29.84" width="47.45" height="36.21" rx="5" ry="5"/><rect class="cls-3" x="33.64" y="52.32" width="33.72" height="8.74" rx="4.37" ry="4.37"/><circle cx="39.73" cy="42.49" r="5.31"/><circle cx="60.96" cy="42.49" r="5.31"/><rect class="cls-4" x="37.86" y="40.62" width="3.75" height="3.75"/><rect class="cls-4" x="59.08" y="40.62" width="3.75" height="3.75"/><rect class="cls-6" x="40.51" y="52.32" width="1.25" height="8.74"/><rect class="cls-6" x="49.56" y="52.32" width="1.25" height="8.74"/><rect class="cls-6" x="58.62" y="52.32" width="1.25" height="8.74"/><rect class="cls-6" x="48.78" y="21.73" width="3.12" height="8.12"/><circle class="cls-7" cx="50.34" cy="21.1" r="3.75"/></g></svg>