<?xml version="1.0" encoding="UTF-8"?><svg id="Layer_1" xmlns="http://www.w3.org/2000/svg" xmlns:xlink="http://www.w3.org/1999/xlink" viewBox="0 0 101 101"><defs><style>.cls-1{fill:#f9b624;}.cls-2{fill:#f7bca4;}.cls-3{fill:#5c1d16;}.cls-4{clip-path:url(#clippath);}.cls-5{fill:#99644c;}</style><clipPath id="clippath"><circle class="cls-2" cx="50.79" cy="51.63" r="50"/></clipPath></defs><g><circle class="cls-2" cx="50.79" cy="51.63" r="50"/><g class="cls-4"><path class="cls-5" d="M19.51,107.32l-11.12-6.51,13.98-29.39c1.08-2.27,3.37-3.72,5.89-3.72h2.82l-11.58,39.62Z"/><path class="cls-5" d="M27.59,42.84l3.63-3.85,.27-2.67,19.76-2.4,6.94,4.54-2.4,9.88-.8,4.54,1.07,6.94h-14.15l-.67-6.01s-5.61,1.87-7.74,.8c-1.89-.94-1.69-3.76-1.62-4.41,0-.08-.02-.16-.09-.22l-1.11-.89c-.07-.06-.11-.15-.09-.24l.24-1.19-.83-.42c-.13-.06-.17-.22-.1-.35l.54-.89c.07-.12,.03-.27-.09-.34l-2.53-1.45c-.5-.29-.6-.97-.21-1.39Z"/><path d="M40.17,37.26l7.48,3.74s-.53-4.54,2.94-4.54,4.01,2.67,4.01,3.47c0,.46-.24,1.96-2.02,4.33-.97,1.28-1.05,3.41-.16,4.75l2.58,3.87,.16-.93c.11-.62,.43-1.18,.92-1.57,1.75-1.41,6.03-5.25,7.06-9.65,1.87-8.01-.53-10.41-.53-10.41l-5.87-6.68s-5.07-3.74-11.75-1.87c-6.68,1.87-12.82,4.81-12.82,4.81l8.01,10.68Z"/><circle cx="35.49" cy="32.05" r="6.54"/><circle cx="65.8" cy="21.77" r="9.35"/><path class="cls-3" d="M41.74,59.06l14.11-.59,1.42,4.66c1.29,4.24,4.97,7.32,9.37,7.85l8.24,.99-10.15,28.84,.32,5.96-45.55,.54-.43-6.51s-2.14-6.73,0-12.58c2.14-5.85,4.81-7.45,6.68-10.92,.76-1.4,2.52-4.53,3.52-6.33,1.47-2.65,1.63-3.25,1.63-3.25l6.56-.57c2.8,0,4.95-2.49,4.53-5.26l-.25-2.85Z"/><path class="cls-5" d="M83.42,80.92c0,5.09-4.12,9.21-9.21,9.21s-9.21-4.12-9.21-9.21,4.12-9.21,9.21-9.21c3.47,0,6.49,1.92,8.06,4.76,.73,1.32,1.15,2.84,1.15,4.46Z"/><polygon class="cls-5" points="96.24 100.81 82.28 76.46 69.05 88.55 78.52 100.81 96.24 100.81"/></g></g><rect class="cls-1" x="53.39" y="25.52" width="13.53" height="2.58" transform="translate(39.92 -35.87) rotate(48.09)"/></svg>