<?xml version="1.0" encoding="UTF-8"?><svg id="Layer_1" xmlns="http://www.w3.org/2000/svg" xmlns:xlink="http://www.w3.org/1999/xlink" viewBox="0 0 101 101"><defs><style>.cls-1{fill:#861811;}.cls-2{fill:#136a42;}.cls-3{fill:#e8521d;}.cls-4{fill:#f8c9b4;}.cls-5{clip-path:url(#clippath);}.cls-6{fill:#e01e13;}</style><clipPath id="clippath"><circle class="cls-4" cx="50.5" cy="50.63" r="50"/></clipPath></defs><circle class="cls-4" cx="50.5" cy="50.63" r="50"/><g class="cls-5"><polygon class="cls-3" points="71.39 103.88 74.53 87.62 78.68 87.62 78.68 79.66 25.98 79.66 25.98 87.62 30.13 87.62 33.27 103.88 71.39 103.88"/><path class="cls-1" d="M60.27,18.97h0c-4.4,0-7.97,3.57-7.97,7.97,0-4.4-3.57-7.97-7.97-7.97h0c-4.4,0-7.97,3.57-7.97,7.97v8.24h31.86v-8.24c0-4.4-3.57-7.97-7.97-7.97Z"/><path class="cls-2" d="M22.32,61.15h9.12c10.22,0,18.51,8.29,18.51,18.51h-9.12c-10.22,0-18.51-8.29-18.51-18.51h0Z"/><path class="cls-2" d="M63.11,61.15h5.09c0,5.71-4.63,10.34-10.34,10.34h-5.09c0-5.71,4.63-10.34,10.34-10.34Z" transform="translate(120.98 132.64) rotate(-180)"/><rect class="cls-2" x="49.95" y="57.56" width="2.82" height="22.11"/><path class="cls-6" d="M60.62,33.83v8.51h-.05c.02,.29,.04,.57,.04,.86,0,6.64-4.46,12.3-10.67,14.35,.77,.12,1.57,.17,2.37,.17,8.79,0,15.92-6.8,15.92-15.21h0V26.21c-4.21,0-7.62,3.41-7.62,7.62Z"/><path class="cls-6" d="M60.61,34.52c0-4.59-3.72-8.31-8.31-8.31h0c-4.59,0-8.31,3.72-8.31,8.31v3.29h0v-3.98c0-4.21-3.41-7.62-7.62-7.62v16.31c0,7.64,5.88,13.95,13.57,15.03,6.21-2.06,10.67-7.71,10.67-14.35,0-.24-.04-.46-.09-.68h.09v-8Z"/></g></svg>