<?xml version="1.0" encoding="UTF-8"?><svg id="Layer_1" xmlns="http://www.w3.org/2000/svg" xmlns:xlink="http://www.w3.org/1999/xlink" viewBox="0 0 101 101"><defs><style>.cls-1{fill:#0a1b3d;}.cls-2{fill:#f9b624;}.cls-3{fill:#e3032c;}.cls-4{fill:#5c1d16;}.cls-5{clip-path:url(#clippath);}.cls-6{fill:#fabd44;}.cls-7{fill:#f1906a;}.cls-8{fill:#72bf98;}.cls-9{fill:#ffded7;}</style><clipPath id="clippath"><circle class="cls-8" cx="50.5" cy="50.63" r="50"/></clipPath></defs><circle class="cls-8" cx="50.5" cy="50.63" r="50"/><g class="cls-5"><path class="cls-7" d="M46.9,40.02s-6.21-14.1-10.16-14.1-4.51,18.62-4.51,18.62c0,0-2.82,1.69-3.95,5.08-1.13,3.39-4.51,7.9-5.08,8.46-.56,.56-4.8,4.8-5.08,7.9-.33,3.66,1.83,6.52,5.08,8.46,4.23,2.54,8.74,3.67,13.26,3.67s9.87-.28,9.87-.28l5.28,4.91s2.05-2.09,6.57-7.17c4.51-5.08,11.85-15.8,11.85-15.8l-2.82-2.26s4.8-8.18,4.23-13.26c-.1-.91-.23-1.7-.36-2.37-.44-2.21-2.74-3.52-4.86-2.79-1.57,.54-3.41,1.32-4.93,2.33l-5.08,3.39s-7.9-5.08-9.31-4.8Z"/><path class="cls-9" d="M34,42.96s1.15-14.77,2.84-14.77,6.68,11.84,6.68,11.84c0,0-3.95-.56-6.21,.56-2.26,1.13-3.31,2.37-3.31,2.37Z"/><path class="cls-9" d="M55.02,48.07s1.47,2.66,2.59,5.49,1.13,7.9,1.13,7.9c0,0,12.79-13.88,9.91-19.63-1.7-3.41-13.64,6.25-13.64,6.25Z"/><path class="cls-9" d="M22.89,58.39s2.85-1.16,5.67-1.16,9.03-5.08,9.03-5.08c0,0,5.08-4.51,6.77-2.26,1.69,2.26-5.97,10.16-6.09,11.57-.12,1.41,1.01,3.67,1.01,4.23s2.82,5.64,2.26,9.03c-.56,3.39-3.22,3.37-3.22,3.37,0,0-10.19,.75-16.25-3.88-9.66-7.39,.82-15.82,.82-15.82Z"/><circle class="cls-1" cx="31.1" cy="51.3" r="2.26"/><ellipse class="cls-1" cx="25.9" cy="63.12" rx="3.1" ry="4.46" transform="translate(-41.71 53.99) rotate(-60)"/><circle class="cls-1" cx="46.9" cy="61.46" r="2.82"/><path class="cls-3" d="M20.38,68.23s1.69,2.26,3.95,3.39c2.26,1.13,3.95,1.13,3.95,1.13,0,0-4.51,4.51-7.33,2.26-2.82-2.26-.56-6.77-.56-6.77Z"/><polygon class="cls-7" points="75.11 62.58 55.36 87.97 59.87 103.77 96.55 106.03 96.55 70.97 75.11 62.58"/><polygon class="cls-4" points="51.61 82.73 70.03 59.76 75.11 62.58 55.36 87.97 51.61 82.73"/><circle class="cls-6" cx="56.02" cy="92.25" r="4.55"/><circle class="cls-2" cx="56.02" cy="92.25" r="3.69"/></g></svg>