<svg xmlns="http://www.w3.org/2000/svg" width="65" height="65" viewBox="0 0 65 65">
  <path id="Trazado_10050" data-name="Trazado 10050" d="M-6498.236-887.9c0-5.091-3.456-9.835-9.733-13.357-6.1-3.421-14.183-5.306-22.766-5.306s-16.668,1.884-22.766,5.306c-6.277,3.522-9.734,8.266-9.734,13.357v27.675c0,5.091,3.458,9.835,9.734,13.357,6.1,3.421,14.183,5.306,22.766,5.306s16.668-1.884,22.767-5.306c5.794-3.252,9.179-7.545,9.666-12.19h.067v-27.675h-.067A11.19,11.19,0,0,0-6498.236-887.9Zm-32.5-16.643c16.775,0,30.422,7.466,30.422,16.643,0,5.108-4.23,9.683-10.873,12.739a49.993,49.993,0,0,0-19.549-3.727,50,50,0,0,0-19.55,3.727c-6.641-3.055-10.872-7.631-10.872-12.739C-6561.158-897.082-6547.51-904.548-6530.736-904.548Zm16.882,30.481a49.62,49.62,0,0,1-16.882,2.806,49.627,49.627,0,0,1-16.883-2.806,49.624,49.624,0,0,1,16.883-2.806A49.617,49.617,0,0,1-6513.854-874.067Zm-47.3-7.212a21.539,21.539,0,0,0,7.656,6.731c.293.165.6.323.9.481-.3.157-.605.316-.9.48a21.538,21.538,0,0,0-7.656,6.731Zm30.422,37.693c-16.774,0-30.422-7.466-30.422-16.644,0-5.108,4.231-9.683,10.872-12.739a50,50,0,0,0,19.55,3.727,49.991,49.991,0,0,0,19.549-3.727c6.642,3.055,10.873,7.631,10.873,12.739C-6500.314-851.052-6513.96-843.586-6530.736-843.586Zm30.422-23.269a21.542,21.542,0,0,0-7.656-6.731c-.293-.165-.6-.323-.9-.48.3-.158.605-.316.9-.481a21.543,21.543,0,0,0,7.656-6.731Z" transform="translate(6563.236 906.567)" fill="#fff"/>
</svg>
