<svg xmlns="http://www.w3.org/2000/svg" width="65" height="65" viewBox="0 0 65 65">
  <g id="Grupo_10933" data-name="Grupo 10933" transform="translate(6765.349 714.37)">
    <path id="Trazado_6470" data-name="Trazado 6470" d="M-6732.849-649.37a32.537,32.537,0,0,1-32.5-32.5,32.537,32.537,0,0,1,32.5-32.5,32.537,32.537,0,0,1,32.5,32.5A32.537,32.537,0,0,1-6732.849-649.37Zm0-62.922a30.457,30.457,0,0,0-30.422,30.422,30.457,30.457,0,0,0,30.422,30.422,30.456,30.456,0,0,0,30.422-30.422A30.456,30.456,0,0,0-6732.849-712.292Z" fill="#fff"/>
  </g>
</svg>
