<svg xmlns="http://www.w3.org/2000/svg" width="102.98" height="102.979" viewBox="0 0 102.98 102.979">
  <g id="Grupo_12050" data-name="Grupo 12050" transform="translate(-206.5 -271.182)">
    <path id="Trazado_2780" data-name="Trazado 2780" d="M2380.842,280.606l-3.549-3.687-14.458,7.239a5.12,5.12,0,0,1,0,7.237l-41.467,41.5-3.6-3.6-3.616,3.617h0a5.25,5.25,0,0,1,0,7.43,4.95,4.95,0,0,1-7.01,0l-.205-.2L2285.3,361.8a10.311,10.311,0,0,0-.2,14.385c3.991,4.225,10.938,4.009,15.049-.106l21.341-21.362a5.117,5.117,0,0,1,0-7.237l.1-.1a4.967,4.967,0,0,1,7.029,0l.1.1,3.616-3.617-3.732-3.735,41.463-41.5a5.108,5.108,0,0,1,7.23,0l7.23-14.473Zm-91.941,92.16a4.955,4.955,0,0,1,0-7l18.19-18.209,3.5,3.5Z" transform="translate(-2075.044 -5.105)" fill="#fff"/>
    <path id="Trazado_2781" data-name="Trazado 2781" d="M2352.929,336.891a10.731,10.731,0,0,0-3.142-7.565l-31.187-31.19-15.108,15.108,31.214,31.214a10.682,10.682,0,0,0,18.223-7.567Zm-14.981,3.2a5.293,5.293,0,0,1-1.552-3.753,5.239,5.239,0,0,1,1.552-3.75,5.305,5.305,0,1,1,0,7.5Z" transform="translate(-2043.449 26.581)" fill="#fff"/>
    <path id="Trazado_2782" data-name="Trazado 2782" d="M2332,311.477l-15.1,15.108-8.179-8.179a21.23,21.23,0,0,1-25.987-26.038l14.894,14.894,14.931-14.931-14.907-14.907a21.221,21.221,0,0,1,26.112,25.811Z" transform="translate(-2075.5 -5.5)" fill="#fff"/>
  </g>
</svg>
