<svg xmlns="http://www.w3.org/2000/svg" width="103.011" height="103.011" viewBox="0 0 103.011 103.011">
  <path id="Trazado_10330" data-name="Trazado 10330" d="M2630.548,273.081V376.092h103.011V273.081Zm77.258,10.274a5.151,5.151,0,1,1-5.151,5.151A5.151,5.151,0,0,1,2707.806,283.355Zm-35.93.027h20.6v10.3h-20.6Zm-15.575,0a5.15,5.15,0,1,1-5.152,5.151A5.149,5.149,0,0,1,2656.3,283.382Zm66.956,82.409h-82.408V324.614h82.408Zm0-51.506h-82.408v-5.151H2656.3v-5.151h5.15v5.151h41.2v-5.151h5.151v5.151h15.451Z" transform="translate(-2630.548 -273.081)" fill="#fff"/>
</svg>
